<?xml version="1.0" standalone="no"?>
<!DOCTYPE svg PUBLIC "-//W3C//DTD SVG 20010904//EN"
 "http://www.w3.org/TR/2001/REC-SVG-20010904/DTD/svg10.dtd">
<svg version="1.0" xmlns="http://www.w3.org/2000/svg"
 width="1000.000000pt" height="1480.000000pt" viewBox="0 0 1000.000000 1480.000000"
 preserveAspectRatio="xMidYMid meet">
<metadata>
Created by potrace 1.16, written by Peter Selinger 2001-2019
</metadata>
<g transform="translate(0.000000,1480.000000) scale(0.100000,-0.100000)"
fill="#000000" stroke="none">
<path d="M5000 14800 l-5000 0 0 -5705 c0 -5427 1 -5705 18 -5705 9 0 46 -15
82 -33 36 -19 169 -87 295 -152 127 -65 235 -121 240 -125 6 -4 145 -76 310
-160 165 -84 336 -172 380 -195 44 -23 148 -77 230 -120 83 -43 191 -99 240
-125 50 -26 178 -93 285 -148 107 -55 276 -144 375 -196 99 -53 192 -96 206
-96 14 0 53 14 85 31 52 27 74 31 176 39 113 8 120 10 167 43 27 20 67 45 89
56 22 11 66 50 98 85 49 56 66 68 121 87 49 16 82 20 150 18 l87 -3 33 44 c18
25 46 72 62 105 15 33 35 85 44 115 8 30 18 75 22 100 4 25 11 61 15 80 5 19
16 82 25 140 8 58 20 148 26 200 5 52 10 188 10 302 0 114 -3 253 -7 308 -4
67 -13 113 -25 138 -11 20 -19 42 -19 49 0 7 4 13 9 13 5 0 15 -16 21 -35 6
-19 17 -35 23 -35 8 0 12 -23 13 -67 0 -38 2 -185 3 -328 2 -143 -2 -303 -8
-355 -6 -52 -18 -142 -26 -200 -9 -58 -20 -121 -25 -140 -4 -19 -11 -55 -15
-80 -4 -25 -15 -74 -25 -110 -10 -36 -31 -93 -48 -125 -16 -33 -44 -79 -61
-102 l-30 -41 -93 5 c-79 4 -101 2 -149 -16 -43 -17 -68 -35 -113 -86 -32 -36
-76 -75 -98 -86 -22 -11 -62 -36 -88 -55 -47 -34 -54 -36 -167 -43 -84 -5
-125 -12 -144 -24 -14 -9 -51 -26 -82 -36 -42 -15 -64 -17 -88 -11 -18 5 -118
55 -223 111 -105 56 -274 144 -376 197 -102 52 -212 109 -245 127 -33 18 -145
76 -250 130 -104 54 -203 106 -220 115 -16 10 -178 93 -360 185 -181 92 -334
171 -340 175 -5 4 -113 61 -240 125 -127 65 -259 133 -295 152 -36 18 -68 33
-72 33 -5 0 -8 -18 -8 -40 0 -34 3 -40 21 -40 12 0 45 -13 73 -29 28 -16 130
-69 226 -119 96 -49 189 -96 205 -105 17 -9 53 -27 80 -40 28 -13 117 -59 200
-101 82 -42 154 -81 160 -85 5 -5 120 -65 255 -134 135 -69 274 -141 310 -160
36 -18 146 -76 245 -128 99 -51 252 -130 340 -176 88 -45 219 -112 291 -149
113 -57 132 -70 132 -90 0 -19 -7 -25 -36 -30 -29 -6 -47 -1 -96 26 -34 18
-68 39 -76 45 -8 7 -26 16 -40 20 -14 4 -43 18 -65 30 -22 12 -148 78 -280
145 -132 67 -244 126 -250 130 -5 4 -145 76 -310 160 -165 84 -326 168 -358
186 -32 19 -64 34 -70 34 -7 0 -22 6 -33 14 -11 8 -103 57 -204 109 -102 52
-301 153 -442 226 -142 72 -262 131 -268 131 -7 0 -10 -288 -10 -880 0 -484 4
-880 8 -880 5 0 27 9 50 20 22 11 48 20 57 20 9 0 25 5 37 11 11 6 81 28 156
49 76 21 160 46 187 55 28 9 80 30 116 45 36 16 90 34 120 40 30 6 74 15 99
20 25 4 99 4 170 -2 69 -5 150 -6 180 -3 30 4 97 15 149 26 52 10 119 19 150
19 31 0 101 -5 157 -12 73 -8 115 -8 150 -1 27 6 76 19 109 28 33 9 74 21 91
25 17 4 61 21 98 39 36 17 68 31 71 31 3 0 5 -7 5 -15 0 -8 -5 -15 -11 -15 -5
0 -34 -11 -64 -25 -29 -14 -80 -33 -112 -41 -32 -9 -74 -21 -93 -26 -19 -5
-59 -15 -89 -21 -39 -8 -81 -8 -160 1 -59 7 -129 12 -156 12 -28 0 -70 -5 -95
-11 -25 -6 -96 -19 -159 -29 -76 -12 -125 -15 -150 -9 -20 5 -86 9 -146 10
-61 1 -120 -3 -130 -8 -11 -6 -39 -13 -62 -17 -24 -3 -67 -17 -95 -30 -29 -13
-93 -38 -143 -54 -49 -17 -126 -40 -170 -52 -44 -12 -109 -30 -145 -42 -36
-11 -84 -29 -108 -39 -23 -10 -49 -19 -57 -19 -13 0 -15 -91 -15 -710 l0 -710
5000 0 5000 0 0 753 0 754 -67 11 c-38 6 -106 16 -153 22 -47 6 -161 27 -255
46 -93 19 -201 44 -240 54 -38 10 -83 23 -100 29 -16 5 -66 17 -110 26 -44 9
-101 23 -126 31 -26 8 -60 14 -75 14 -16 1 -51 9 -79 19 -27 9 -75 29 -105 43
-30 14 -95 38 -145 53 -49 15 -94 31 -100 35 -5 3 -28 12 -50 18 -22 6 -92 27
-155 46 -63 19 -138 46 -165 59 -28 14 -73 42 -100 64 -28 21 -72 54 -100 73
-27 19 -75 58 -105 86 -31 29 -78 63 -105 75 -32 14 -81 25 -137 29 -48 4 -94
13 -102 19 -8 7 -25 35 -39 64 -13 29 -31 75 -39 102 -9 28 -21 69 -27 92 -7
27 -28 57 -57 86 -41 41 -53 47 -115 57 -38 7 -69 16 -69 21 0 6 25 7 63 3 34
-4 74 -13 89 -20 15 -8 42 -30 61 -49 21 -22 39 -54 47 -83 7 -26 19 -69 27
-97 9 -27 28 -72 42 -99 14 -28 37 -56 51 -63 14 -7 52 -13 84 -13 40 0 81 -8
125 -26 44 -17 85 -44 121 -78 30 -29 78 -67 105 -86 28 -19 72 -51 99 -73 28
-21 75 -51 106 -67 30 -15 103 -42 160 -59 58 -17 132 -41 165 -52 33 -11 113
-38 179 -60 65 -21 130 -46 145 -54 14 -8 43 -21 65 -30 21 -8 59 -15 85 -15
25 0 55 -7 65 -15 11 -8 31 -15 44 -15 13 0 54 -7 90 -16 37 -9 103 -27 147
-40 44 -14 164 -42 267 -63 102 -22 230 -45 285 -51 54 -6 117 -16 140 -21 23
-5 47 -9 52 -9 8 0 11 1979 11 6635 l0 6635 -5000 0z m615 -4708 c11 -3 22 -8
25 -13 3 -4 19 -11 35 -15 17 -4 41 -7 55 -6 14 1 53 7 87 14 51 10 65 9 78
-2 10 -8 21 -24 26 -37 7 -19 16 -23 53 -23 24 0 57 -7 72 -15 16 -8 37 -12
47 -9 10 3 33 22 52 41 l35 36 47 -18 c27 -10 64 -18 83 -17 19 1 40 -1 46 -6
6 -4 19 -22 28 -40 9 -18 28 -38 42 -44 19 -9 36 -9 67 -1 23 6 55 9 70 6 19
-4 26 -10 23 -19 -3 -8 1 -14 9 -14 8 0 15 -4 15 -10 0 -5 -8 -10 -18 -10 -10
0 -25 9 -34 20 -15 16 -22 18 -48 9 -17 -6 -47 -8 -68 -5 -20 4 -58 9 -83 12
-46 6 -47 5 -75 -40 -16 -25 -35 -45 -41 -46 -7 0 -13 3 -13 6 0 3 15 27 32
55 30 44 36 49 71 49 l38 0 -16 30 c-11 21 -23 30 -39 30 -14 0 -27 -6 -30
-12 -5 -10 -7 -10 -12 0 -3 6 -12 12 -19 12 -7 0 -25 7 -41 15 -27 14 -29 13
-48 -15 -12 -16 -32 -34 -46 -39 -14 -5 -19 -10 -12 -10 6 -1 12 -12 12 -26 0
-14 -4 -25 -9 -25 -5 0 -12 11 -15 25 -5 18 -15 26 -41 31 -19 3 -38 10 -41
15 -3 5 -29 9 -59 9 -29 0 -60 3 -69 6 -9 3 -16 11 -16 16 0 6 10 8 21 5 21
-6 21 -5 -2 19 -18 19 -30 24 -49 19 -14 -3 -36 -8 -50 -11 -14 -3 -38 -7 -55
-9 -16 -2 -47 1 -67 6 -21 5 -38 14 -38 19 0 6 -19 10 -42 10 -31 0 -49 -6
-69 -26 -20 -19 -44 -28 -95 -35 -38 -6 -108 -12 -157 -14 -48 -2 -113 -6
-145 -10 -50 -6 -61 -4 -85 15 -15 12 -27 28 -27 36 0 8 3 14 6 14 3 0 20 -11
36 -25 23 -20 38 -24 58 -20 15 3 74 8 131 10 57 2 135 9 173 14 51 7 75 16
95 34 14 14 40 27 56 30 17 2 39 2 50 -1z m-612 -23 c4 1 7 -2 7 -5 0 -4 -12
-18 -27 -32 -15 -14 -50 -36 -78 -48 -31 -15 -94 -29 -161 -38 -60 -8 -111
-12 -114 -9 -3 2 4 11 15 19 11 8 25 12 33 9 7 -2 48 0 90 7 42 6 101 22 130
36 28 13 52 28 52 33 0 6 10 14 23 19 12 5 25 9 30 9z m227 -129 c6 0 10 -4
10 -9 0 -6 -11 -22 -25 -37 -14 -15 -25 -30 -25 -35 0 -4 7 -14 15 -23 10 -10
13 -24 9 -41 -5 -19 -2 -25 11 -25 9 0 15 -5 13 -12 -2 -6 -8 -13 -14 -15 -5
-1 -15 1 -23 6 -7 5 -15 25 -16 45 -2 21 -14 49 -30 67 -14 17 -24 36 -22 42
2 6 9 13 15 15 7 2 12 -6 12 -17 0 -12 5 -21 10 -21 6 0 10 4 10 8 0 5 9 18
20 30 12 12 25 22 30 22z m-552 -32 c8 -2 17 -8 19 -15 2 -6 -13 -14 -39 -18
-24 -4 -58 -16 -75 -27 -18 -11 -33 -23 -33 -27 0 -4 -11 -13 -24 -19 -13 -6
-33 -8 -44 -6 -10 3 -26 -2 -35 -11 -9 -9 -21 -14 -25 -11 -5 3 -21 -4 -38
-15 -16 -10 -32 -19 -36 -19 -5 0 -8 6 -8 14 0 7 32 27 70 44 39 17 78 28 87
25 9 -3 21 0 27 8 6 8 24 24 40 37 16 12 41 22 57 22 15 0 31 5 34 11 4 5 14
9 23 7z m725 0 c6 -3 17 -16 24 -29 9 -19 10 -34 1 -62 -7 -24 -8 -44 -2 -58
9 -19 13 -16 43 40 18 34 39 65 47 68 8 3 18 3 21 -1 3 -3 -1 -14 -9 -23 -9
-10 -30 -44 -47 -76 -17 -31 -31 -62 -31 -67 0 -6 7 -10 15 -10 8 0 16 -8 17
-17 0 -10 0 -29 -1 -43 -1 -14 -12 -45 -23 -70 -12 -25 -32 -57 -45 -71 -15
-17 -28 -51 -38 -100 -9 -41 -28 -103 -44 -139 -16 -36 -31 -73 -34 -82 -4
-10 -11 -18 -17 -18 -5 0 -10 8 -10 18 0 10 15 49 34 88 18 39 40 101 49 138
l15 67 -21 -7 c-12 -4 -34 -15 -49 -25 -14 -11 -33 -16 -42 -13 -12 5 -19 -2
-27 -24 -6 -17 -20 -32 -32 -36 -12 -3 -25 0 -29 7 -4 7 -8 20 -8 30 0 9 4 17
9 17 5 0 12 -8 16 -17 5 -15 10 -12 24 17 12 26 23 34 38 33 12 -2 44 9 72 22
27 14 52 25 56 25 4 0 14 8 21 18 8 9 25 39 39 65 14 27 25 59 25 72 0 13 -4
26 -8 29 -4 2 -17 -16 -29 -42 -12 -26 -38 -66 -58 -89 -20 -24 -40 -43 -44
-43 -4 0 -18 29 -30 65 -13 36 -20 69 -16 73 3 4 13 -2 21 -12 8 -11 14 -29
14 -40 0 -12 4 -27 9 -35 7 -10 17 -2 44 35 20 27 43 68 53 92 15 40 15 44 -1
56 -13 10 -16 24 -12 74 2 35 0 65 -5 68 -4 3 -8 12 -8 20 0 9 6 14 13 12z
m-623 -18 c6 0 10 -4 10 -10 0 -5 -16 -31 -36 -57 -20 -27 -42 -51 -48 -55 -6
-4 -19 -8 -29 -8 -10 0 -29 11 -42 25 -14 13 -25 31 -25 40 0 8 5 15 10 15 6
0 15 -11 22 -24 6 -14 17 -27 25 -30 7 -3 21 3 31 13 9 10 30 35 45 55 15 20
32 36 37 36z m595 -10 c8 0 15 -4 15 -9 0 -5 -24 -36 -52 -68 -29 -32 -61 -64
-71 -71 -9 -7 -24 -26 -32 -42 -8 -16 -15 -37 -15 -48 0 -10 -11 -29 -24 -41
-14 -13 -30 -36 -36 -52 -7 -16 -19 -29 -26 -29 -8 0 -14 2 -14 5 0 3 9 23 19
44 11 20 27 43 35 50 9 8 16 20 16 28 0 7 9 30 19 51 11 20 44 60 74 88 30 27
59 60 66 72 6 12 18 22 26 22z m-379 -30 c2 0 14 -4 28 -10 22 -8 26 -16 26
-48 0 -25 -7 -43 -20 -55 -11 -9 -24 -17 -29 -17 -5 0 -21 -14 -35 -31 -14
-17 -26 -39 -26 -49 0 -9 7 -23 15 -30 8 -7 15 -16 15 -21 0 -5 -7 -9 -15 -9
-8 0 -15 4 -15 9 0 5 -11 4 -24 -2 -14 -7 -32 -26 -40 -44 -11 -24 -22 -33
-40 -33 -16 0 -27 7 -31 20 -3 10 -2 27 3 37 5 10 12 35 16 55 4 22 2 46 -4
59 -7 11 -9 23 -6 26 3 3 13 0 22 -8 13 -11 15 -24 9 -74 -3 -33 -11 -65 -16
-72 -7 -7 -7 -13 0 -17 5 -4 20 12 32 34 13 23 29 39 38 38 8 -2 17 5 19 14 2
11 -6 22 -22 29 -14 7 -26 16 -26 20 0 5 9 24 19 43 l20 34 -22 15 c-12 8 -20
17 -17 21 3 3 16 3 28 -1 12 -3 25 -15 28 -27 3 -12 -2 -35 -10 -51 -8 -16
-13 -31 -10 -34 2 -3 18 12 35 32 17 20 38 37 46 37 9 0 22 8 29 18 7 9 14 25
14 34 0 9 -5 20 -10 23 -6 3 -14 -5 -20 -19 -5 -14 -14 -26 -20 -26 -5 0 -10
3 -10 7 0 4 5 22 12 40 7 18 13 33 14 33z m150 0 c8 0 14 -4 14 -9 0 -5 -7
-14 -15 -21 -8 -7 -15 -18 -15 -25 0 -7 7 -18 15 -25 8 -7 15 -19 15 -27 0 -9
-6 -13 -15 -9 -8 3 -15 2 -15 -3 0 -4 -12 -14 -27 -22 -16 -7 -31 -15 -35 -17
-5 -2 -8 0 -8 5 0 4 13 21 28 38 20 21 27 37 24 57 -2 16 1 35 8 43 7 8 19 15
26 15z m940 0 c8 0 25 -5 36 -11 12 -6 38 -30 59 -52 22 -22 39 -44 39 -49 0
-4 -9 -8 -19 -8 -11 0 -21 -4 -23 -8 -1 -5 -18 -12 -35 -15 -27 -5 -33 -3 -33
11 0 10 -16 33 -36 50 -35 31 -36 33 -20 57 9 14 23 25 32 25z m-1190 -10 c17
0 37 -7 44 -15 7 -9 10 -18 6 -22 -3 -4 -12 -1 -18 5 -7 7 -18 12 -26 12 -8 0
-32 -14 -54 -31 -21 -17 -42 -29 -45 -25 -4 3 9 22 27 41 25 26 43 35 66 35z
m1829 -10 c8 0 15 -5 15 -10 0 -6 12 -16 28 -22 15 -7 50 -27 78 -45 28 -17
58 -43 68 -57 9 -14 33 -34 54 -45 22 -12 57 -46 87 -88 27 -37 53 -69 57 -71
5 -2 8 -9 8 -16 0 -7 11 -22 25 -34 14 -12 25 -26 25 -32 0 -5 -4 -10 -8 -10
-5 0 -24 17 -43 38 -19 20 -50 59 -68 85 -18 27 -47 64 -63 83 -17 19 -38 34
-48 34 -10 0 -29 15 -43 33 -14 18 -52 50 -85 70 -33 20 -65 37 -71 37 -6 0
-15 9 -21 19 -5 11 -10 22 -10 25 0 3 7 6 15 6z m-1207 -30 c5 0 19 -11 32
-25 24 -25 24 -25 32 -5 4 11 16 20 28 20 11 0 20 -5 20 -10 0 -6 -7 -13 -15
-16 -8 -3 -17 -15 -20 -25 -5 -15 -12 -18 -28 -13 -11 4 -29 16 -39 28 -9 11
-17 27 -18 34 0 6 4 12 8 12z m-1007 -20 c5 0 9 -6 9 -13 0 -8 -9 -22 -19 -31
-11 -10 -26 -32 -35 -50 -8 -18 -33 -53 -56 -78 -22 -25 -40 -53 -40 -60 0 -8
-9 -23 -21 -34 -11 -10 -27 -33 -34 -51 -8 -18 -19 -33 -24 -33 -6 0 -11 4
-11 9 0 5 6 24 14 42 8 19 24 43 35 53 12 11 21 26 21 35 0 9 20 36 45 60 25
24 45 50 45 58 0 8 14 33 31 54 17 21 35 39 40 39z m60 -10 c5 0 9 -5 9 -12 0
-6 -9 -21 -19 -32 -10 -12 -32 -46 -49 -76 -22 -42 -27 -59 -19 -71 7 -12 7
-25 -2 -46 -6 -16 -21 -34 -32 -41 -12 -8 -23 -11 -26 -8 -3 2 7 21 22 41 15
19 25 39 21 43 -4 3 -24 -13 -44 -38 -20 -24 -37 -46 -37 -49 0 -4 7 -6 15 -7
8 -1 27 -2 43 -2 16 -1 27 -8 27 -16 0 -8 -13 -26 -30 -39 -16 -14 -30 -28
-30 -30 0 -3 12 -8 26 -11 18 -5 32 -2 45 10 11 9 19 28 19 41 0 12 5 23 10
23 6 0 10 -12 10 -27 0 -18 3 -24 8 -15 7 10 14 10 37 -2 21 -11 33 -12 42 -5
9 8 17 6 29 -5 9 -10 15 -19 12 -21 -2 -2 -23 -7 -45 -9 -23 -3 -45 -1 -48 4
-3 6 -14 10 -23 10 -9 -1 -26 -8 -37 -18 -11 -9 -25 -29 -32 -44 -7 -16 -27
-34 -47 -42 -27 -11 -44 -12 -73 -4 -21 5 -44 15 -50 20 -7 6 -13 18 -13 27 0
9 -16 47 -36 84 -19 37 -42 67 -50 67 -11 0 -13 6 -8 23 3 12 8 24 10 26 2 3
11 -4 19 -15 8 -10 25 -39 37 -64 13 -25 28 -52 35 -60 6 -8 13 -28 15 -45 3
-26 8 -30 47 -38 37 -7 48 -6 70 11 14 10 26 25 26 33 0 9 -8 13 -22 11 -17
-2 -24 3 -29 23 -5 19 -1 32 17 51 12 13 18 24 12 24 -6 0 -13 -5 -15 -12 -3
-7 -12 -5 -26 8 -12 10 -22 25 -22 34 0 8 25 49 56 90 31 41 61 86 67 100 6
14 24 42 40 63 16 20 33 37 38 37z m-134 -10 c7 0 13 -4 13 -9 0 -4 -18 -21
-40 -36 -22 -15 -40 -36 -40 -45 0 -10 -19 -33 -42 -52 -24 -18 -56 -39 -72
-46 -16 -7 -31 -10 -35 -6 -3 3 2 11 13 18 10 6 40 28 67 49 27 21 49 47 49
56 0 10 17 30 37 44 21 15 43 27 50 27z m210 -30 c7 0 18 -12 24 -26 7 -20 6
-32 -6 -50 -8 -13 -15 -28 -15 -34 0 -5 7 -10 15 -10 8 0 15 5 15 10 0 7 21 9
63 4 34 -4 64 -8 66 -10 3 -3 0 -9 -5 -14 -5 -5 -26 -5 -53 1 -36 8 -45 7 -56
-7 -7 -11 -17 -14 -25 -9 -9 6 -12 4 -8 -6 3 -8 8 -24 12 -36 5 -17 3 -23 -8
-23 -10 0 -19 18 -27 54 -9 44 -9 61 1 86 7 17 11 32 9 34 -2 2 -28 -27 -56
-65 -29 -38 -53 -78 -53 -89 0 -11 -4 -20 -9 -20 -5 0 -11 10 -14 22 -3 12 -3
27 1 33 4 6 31 43 61 83 30 40 61 72 68 72z m1041 0 c22 0 32 -7 45 -35 9 -20
17 -42 17 -50 0 -7 -11 -27 -25 -43 -14 -17 -25 -38 -25 -47 0 -10 -20 -37
-44 -61 l-45 -43 35 -11 c19 -6 34 -16 34 -21 0 -5 -8 -9 -17 -9 -17 -1 -17
-1 0 -11 9 -5 17 -13 17 -18 0 -4 -17 -14 -37 -23 -21 -9 -50 -19 -65 -22 -20
-5 -28 -3 -28 8 0 8 7 17 16 20 9 3 19 4 23 2 3 -3 17 4 30 13 l23 18 -23 22
-24 22 -33 -35 c-18 -20 -36 -36 -41 -36 -5 0 -12 7 -15 16 -3 9 -6 27 -6 41
0 16 17 42 50 76 41 42 54 65 71 122 12 38 25 78 30 88 6 10 21 17 37 17z
m-1525 -11 c4 1 7 -3 7 -7 0 -5 -6 -15 -12 -24 -7 -8 -38 -31 -68 -50 -30 -19
-76 -41 -102 -48 -27 -7 -48 -17 -48 -21 0 -5 -7 -9 -15 -9 -8 0 -15 4 -15 9
0 5 6 13 13 18 6 6 35 18 62 27 28 10 77 37 110 61 33 24 63 44 68 44z m118 1
c6 0 9 -3 7 -7 -2 -5 -14 -25 -26 -45 -15 -23 -36 -41 -57 -48 -18 -6 -50 -24
-69 -39 -21 -17 -53 -31 -78 -34 -24 -3 -70 -18 -103 -33 -33 -15 -71 -38 -85
-51 -14 -14 -45 -39 -69 -56 -24 -18 -50 -36 -57 -42 -7 -5 -16 -6 -20 -2 -4
4 1 16 12 28 10 12 43 37 72 55 29 19 55 41 58 48 3 8 17 17 31 20 13 4 41 17
61 30 21 13 55 23 77 24 22 1 51 10 65 21 14 10 49 30 78 45 29 14 52 31 52
36 0 6 9 19 20 30 11 11 25 20 31 20z m1287 -10 c6 0 12 -4 12 -8 0 -4 -13
-29 -30 -55 -16 -26 -34 -47 -40 -47 -5 0 -10 4 -10 9 0 6 12 30 28 55 15 25
33 46 40 46z m938 0 c3 0 14 -5 25 -10 10 -6 26 -24 34 -40 13 -26 21 -30 55
-30 28 0 43 -6 52 -19 6 -10 18 -17 25 -14 10 4 4 17 -22 48 -19 24 -35 46
-35 49 0 3 6 6 14 6 8 0 28 -18 45 -39 17 -21 31 -44 31 -50 0 -6 5 -11 10
-11 6 0 10 -4 10 -10 0 -5 -9 -10 -20 -10 -11 0 -20 -4 -20 -10 0 -5 -7 -10
-15 -10 -9 0 -27 12 -40 28 -21 23 -26 25 -35 12 -9 -13 -11 -13 -21 0 -8 11
-12 12 -16 3 -2 -7 -8 -13 -13 -13 -5 0 -14 16 -20 36 -7 19 -20 40 -31 47
-10 6 -19 17 -19 24 0 7 3 13 6 13z m-904 -10 c6 0 8 -13 4 -32 -4 -18 -18
-55 -33 -83 -14 -27 -36 -62 -49 -77 -12 -16 -25 -37 -29 -48 -3 -11 -11 -20
-17 -20 -6 0 -8 11 -4 28 4 15 16 38 26 52 11 14 33 48 49 77 17 28 33 63 37
77 3 14 11 26 16 26z m301 -23 c5 -2 16 -15 25 -29 9 -15 13 -31 8 -35 -4 -4
-14 1 -23 12 -15 20 -15 20 -30 -2 -9 -13 -19 -23 -24 -23 -5 0 -9 6 -9 13 0
8 10 25 23 40 12 14 26 25 30 24z m279 3 c3 0 11 -14 17 -30 5 -17 17 -37 25
-45 8 -8 23 -15 34 -15 11 0 23 -7 26 -16 3 -9 6 -24 6 -35 0 -10 -4 -19 -10
-19 -5 0 -10 9 -10 20 0 11 -7 20 -15 20 -8 0 -15 -9 -15 -20 0 -13 -10 -24
-25 -30 -14 -5 -25 -17 -25 -26 0 -9 -6 -28 -14 -42 -8 -15 -21 -45 -28 -67
-13 -35 -12 -46 3 -90 13 -38 18 -46 24 -32 4 10 18 17 36 17 16 0 29 -4 29
-10 0 -5 -8 -10 -18 -10 -9 0 -23 -9 -30 -21 -8 -13 -21 -19 -35 -17 -14 2
-22 10 -23 23 0 11 -4 33 -8 49 -6 23 -9 27 -17 15 -5 -7 -9 -26 -9 -41 0 -14
-3 -33 -6 -42 -3 -9 -10 -16 -15 -16 -5 0 -9 7 -9 15 0 9 -9 26 -20 38 -17 17
-20 30 -15 60 7 37 6 38 -19 31 -16 -4 -26 -2 -26 5 0 6 11 13 24 17 13 3 29
17 35 30 7 15 18 24 28 22 10 -2 17 2 17 7 -1 6 -4 25 -7 43 -5 23 -3 32 7 32
8 0 17 -16 21 -37 4 -21 10 -32 12 -25 3 6 11 12 18 12 7 0 16 7 19 16 3 9 6
23 6 32 0 9 12 28 27 44 l27 28 -22 23 c-12 13 -22 29 -22 35 0 7 -3 12 -7 12
-5 -1 -19 -23 -32 -51 -14 -27 -31 -55 -38 -61 -7 -6 -16 -9 -19 -6 -2 3 11
36 31 74 20 37 41 72 48 76 7 4 15 8 19 8z m-1118 -10 c9 0 12 -24 12 -90 -1
-49 -2 -90 -3 -90 -2 0 -13 10 -24 21 -12 12 -17 24 -12 28 6 3 12 25 15 48 3
22 1 46 -4 51 -6 6 -7 15 -4 21 4 6 13 11 20 11z m47 -10 c5 0 9 -10 9 -22 0
-13 3 -33 6 -45 5 -17 2 -23 -9 -23 -8 0 -18 12 -21 26 -4 14 -4 34 -1 45 4
10 11 19 16 19z m-1187 -23 c16 -1 32 -8 34 -16 3 -10 0 -12 -13 -7 -10 3 -32
4 -49 0 -24 -4 -39 -18 -64 -59 -21 -34 -46 -60 -68 -70 -20 -9 -48 -30 -63
-46 -16 -16 -31 -29 -35 -29 -3 0 -6 6 -6 13 0 7 11 25 25 40 14 15 41 33 60
41 18 8 39 25 46 38 6 12 23 37 37 53 13 17 34 33 46 37 11 3 34 6 50 5z
m2957 -21 c24 -4 57 -15 73 -24 17 -10 51 -47 76 -82 26 -36 54 -66 63 -68 9
-2 17 -8 17 -13 0 -5 -7 -12 -15 -15 -8 -4 -22 0 -31 7 -8 7 -30 35 -49 64
-19 28 -45 61 -58 73 -20 19 -25 20 -30 8 -4 -9 4 -21 19 -30 13 -9 24 -22 24
-30 0 -7 17 -33 38 -57 21 -24 41 -52 45 -61 3 -10 14 -18 22 -18 9 0 32 -12
51 -26 24 -19 34 -34 34 -55 0 -15 4 -30 9 -34 5 -3 19 -31 31 -63 12 -31 34
-70 49 -87 16 -16 43 -61 61 -100 19 -38 44 -86 57 -105 12 -19 29 -58 38 -85
8 -28 12 -58 9 -67 -3 -10 -9 -18 -13 -18 -4 0 8 -30 26 -67 20 -41 32 -80 31
-98 -2 -20 -11 -34 -28 -42 -17 -9 -20 -13 -10 -17 8 -2 27 -6 43 -9 23 -4 27
-1 27 19 0 12 -4 26 -10 29 -5 3 -10 11 -10 16 0 5 11 7 24 3 13 -3 27 -1 30
5 4 5 -3 18 -13 28 -16 15 -19 25 -13 48 5 16 14 31 20 33 9 3 11 -4 6 -23 -5
-19 -2 -30 12 -40 11 -7 16 -17 12 -21 -5 -4 1 -13 12 -21 11 -8 20 -18 20
-23 0 -6 -8 -9 -17 -8 -10 1 -26 0 -35 0 -10 -1 -18 -10 -18 -21 0 -10 14 -32
30 -49 17 -18 30 -41 30 -51 0 -11 6 -26 13 -33 6 -8 18 -24 25 -36 6 -12 12
-29 12 -37 0 -8 -3 -15 -7 -15 -5 0 -20 23 -35 50 -16 28 -28 55 -28 61 0 6
-10 23 -22 38 -17 19 -33 26 -58 26 -34 1 -36 -1 -32 -29 3 -17 13 -44 23 -61
11 -16 19 -37 19 -47 0 -9 -5 -18 -11 -20 -8 -3 -8 -19 1 -61 7 -31 17 -57 22
-57 4 0 8 -11 8 -24 0 -14 5 -28 10 -31 6 -3 10 -10 10 -16 0 -5 -7 -9 -15 -9
-8 0 -18 12 -21 28 -4 15 -10 32 -14 37 -4 6 -12 31 -19 57 -6 26 -11 58 -11
72 0 14 4 26 10 26 5 0 1 15 -10 33 -11 17 -20 43 -20 57 0 14 -9 43 -20 65
-11 22 -20 41 -20 42 0 2 11 3 24 3 16 0 27 7 31 20 5 14 -7 49 -36 105 -23
47 -39 88 -35 92 4 4 12 1 17 -7 8 -11 9 -2 5 32 -3 26 -16 63 -28 83 -13 19
-30 35 -38 35 -9 0 -23 -9 -32 -19 -15 -18 -14 -25 15 -107 l30 -88 -17 -68
c-13 -49 -15 -72 -7 -86 6 -11 15 -41 22 -68 6 -27 11 -80 10 -119 0 -38 -3
-82 -6 -97 -5 -22 -11 -26 -38 -25 l-32 2 -5 92 c-3 56 -10 97 -18 105 -11 11
-16 9 -28 -7 -8 -11 -25 -21 -38 -22 -14 -1 -33 8 -44 20 -11 12 -25 46 -31
75 -6 30 -9 57 -6 61 2 4 -4 29 -13 54 -10 25 -21 49 -25 53 -4 4 -7 22 -7 41
0 18 4 33 9 33 5 0 12 -7 15 -16 3 -9 3 -20 0 -25 -3 -6 -2 -15 3 -22 5 -7 17
-32 25 -57 9 -25 16 -60 16 -77 1 -18 8 -43 16 -55 9 -12 16 -30 16 -40 0 -10
5 -18 10 -18 6 0 22 12 36 27 21 23 27 25 34 13 6 -8 10 -10 10 -5 0 6 -8 26
-18 45 -10 20 -17 54 -16 80 0 25 7 64 14 87 10 33 10 55 2 98 -8 37 -19 63
-34 75 -13 10 -20 22 -15 26 4 4 12 3 18 -3 8 -8 20 -8 38 -2 14 6 29 15 32
21 4 6 -21 40 -57 76 -35 36 -67 77 -70 91 -3 14 -7 32 -10 39 -2 6 -12 12
-22 12 -14 0 -19 7 -19 24 0 13 -12 40 -27 58 -14 19 -26 38 -26 41 0 4 6 7
14 7 8 0 28 -22 45 -49 16 -28 40 -61 52 -75 13 -14 30 -26 40 -26 9 0 22 -7
29 -15 7 -8 10 -22 6 -30 -3 -8 -10 -15 -17 -15 -6 0 -8 7 -5 15 3 9 -1 18 -9
21 -8 3 -19 4 -25 2 -6 -2 19 -35 57 -74 49 -51 73 -69 86 -65 15 6 14 12 -13
70 -17 35 -43 79 -59 97 -16 18 -34 50 -41 71 -7 21 -21 50 -31 65 -11 14 -19
38 -19 52 0 19 -11 33 -42 55 -24 16 -56 42 -71 58 -16 15 -42 49 -58 75 -16
25 -41 53 -54 62 -14 9 -25 23 -25 30 0 8 6 16 13 19 6 2 9 7 6 11 -4 4 -19 8
-35 9 -15 1 -30 9 -32 16 -4 11 4 13 39 7z m-2159 -16 c4 0 8 -6 8 -13 0 -7
-7 -37 -15 -65 -9 -29 -20 -52 -25 -52 -6 0 -10 5 -10 12 0 6 8 35 17 65 9 29
20 53 25 53z m1678 0 c6 0 19 -9 29 -19 11 -11 25 -39 32 -63 7 -24 18 -50 26
-59 7 -8 13 -19 13 -24 0 -4 7 -13 17 -20 10 -8 13 -17 7 -26 -4 -8 -7 -27 -5
-44 2 -16 9 -38 17 -49 8 -11 14 -24 14 -28 0 -5 -6 -8 -14 -8 -7 0 -18 12
-24 28 -6 15 -14 48 -18 75 -3 26 -14 57 -23 70 -10 12 -23 41 -30 65 -7 26
-18 42 -27 42 -11 0 -14 6 -10 16 3 9 2 12 -5 9 -6 -4 -8 -38 -5 -88 3 -45 2
-98 -2 -117 -6 -28 -13 -36 -34 -38 -23 -3 -27 1 -33 30 -3 18 -11 45 -17 61
-6 15 -13 27 -17 27 -4 0 -12 -13 -18 -30 -6 -16 -23 -35 -37 -41 -14 -7 -29
-10 -31 -7 -3 3 8 19 25 36 16 17 30 38 30 46 0 11 9 16 29 16 22 0 31 -6 39
-27 6 -16 14 -43 17 -61 5 -25 10 -31 18 -23 7 7 11 49 10 113 -1 56 2 110 8
120 5 10 14 18 19 18z m-651 -12 c9 -2 26 -23 39 -48 12 -25 21 -53 18 -62 -2
-10 1 -15 8 -12 7 3 18 -11 26 -31 7 -19 18 -35 23 -35 5 0 6 -11 3 -24 -3
-14 -2 -28 4 -31 5 -3 10 -17 10 -31 0 -13 5 -33 12 -43 9 -16 16 -17 35 -8
13 5 26 7 31 2 4 -4 1 -10 -5 -12 -7 -3 -13 -18 -13 -33 0 -16 5 -32 11 -35 5
-4 18 0 28 9 10 9 27 16 39 16 18 0 22 -6 22 -34 0 -19 -11 -49 -25 -70 -13
-20 -34 -58 -46 -85 -11 -28 -18 -55 -14 -60 3 -6 9 -11 13 -11 4 0 15 13 25
29 12 20 28 31 53 36 25 4 51 22 85 56 40 40 54 49 83 49 29 0 45 -9 91 -54
38 -37 53 -58 49 -70 -3 -9 -9 -16 -13 -16 -4 0 -6 -18 -6 -39 0 -22 3 -43 7
-46 3 -3 40 29 82 72 45 46 76 86 76 98 0 12 5 26 11 32 6 6 8 21 4 33 -5 17
-10 19 -21 9 -8 -6 -14 -17 -14 -23 0 -7 -12 -23 -26 -35 -25 -21 -26 -22 -40
-4 -7 10 -14 26 -14 35 0 9 5 20 10 23 6 3 10 12 10 19 0 8 -9 16 -20 19 -11
3 -29 22 -42 43 -21 35 -22 36 -31 16 -6 -12 -18 -22 -29 -22 -10 0 -18 3 -18
6 0 3 6 12 14 20 8 7 16 19 18 25 3 8 14 10 29 6 13 -4 32 -20 41 -37 9 -16
24 -30 32 -30 8 0 20 -9 26 -21 9 -16 8 -26 -5 -45 -13 -20 -13 -24 -1 -24 8
0 23 16 35 35 13 22 28 35 41 35 14 0 20 -7 20 -22 l0 -22 21 20 c20 20 20 23
5 52 -9 17 -16 33 -16 37 0 3 6 5 14 5 8 0 19 -15 26 -34 7 -22 7 -42 1 -59
-6 -14 -16 -29 -23 -34 -7 -4 -19 -21 -26 -36 -6 -15 -12 -33 -12 -38 0 -6 6
-4 13 3 7 7 16 21 20 30 3 10 19 20 34 24 15 4 31 12 35 17 3 6 1 18 -5 28 -8
13 -7 23 5 41 14 22 13 25 -13 51 -16 15 -33 44 -38 65 -6 20 -11 66 -13 102
-3 64 -3 65 25 68 15 2 27 0 27 -5 0 -4 4 -14 9 -22 8 -12 12 -12 25 2 12 11
13 17 3 20 -9 4 -8 8 3 16 8 6 26 8 40 4 14 -3 39 -12 57 -20 18 -8 62 -42 98
-75 36 -33 65 -56 65 -51 0 5 -18 33 -39 62 -22 29 -58 70 -80 90 -23 21 -41
45 -41 54 0 10 3 17 8 17 4 0 25 -19 47 -42 22 -24 64 -73 93 -111 28 -37 52
-71 52 -76 0 -5 -6 -11 -12 -13 -8 -3 6 -26 36 -59 27 -30 55 -69 63 -87 7
-18 11 -37 8 -42 -4 -6 -1 -10 4 -10 6 0 11 -4 11 -10 0 -5 -10 -12 -22 -15
-20 -5 -23 -13 -24 -63 -1 -31 -2 -77 -3 -101 0 -24 -3 -53 -7 -63 -3 -12 -12
-17 -20 -14 -8 3 -14 -1 -14 -9 0 -8 -4 -15 -10 -15 -5 0 -10 8 -11 18 0 10
-2 12 -6 4 -3 -7 -2 -20 1 -28 5 -13 9 -14 20 -5 7 6 20 9 28 6 9 -4 21 -18
27 -32 7 -16 8 -28 2 -32 -5 -3 -8 -52 -8 -109 1 -64 -2 -101 -8 -99 -6 2 -11
51 -12 113 -1 60 -2 118 -3 129 -1 18 -3 17 -25 -7 -13 -16 -28 -28 -33 -28
-4 0 -16 -17 -25 -38 -9 -21 -17 -49 -17 -61 0 -12 -5 -42 -11 -67 -6 -24 -16
-44 -21 -44 -7 0 -8 13 -3 33 3 17 9 50 11 72 3 22 13 57 22 78 12 30 13 40 3
46 -6 4 -18 29 -26 55 -8 26 -21 54 -30 62 -8 9 -15 20 -15 25 0 5 4 9 9 9 5
0 11 14 15 30 3 17 10 30 16 30 5 0 10 -3 10 -8 0 -4 -4 -21 -9 -38 -5 -17 -5
-37 -1 -44 6 -9 13 -4 24 19 9 17 22 31 30 31 8 0 12 12 11 36 0 19 -7 39 -15
44 -8 5 -27 6 -42 3 -16 -3 -34 0 -43 7 -8 7 -15 28 -15 46 0 19 -4 34 -9 34
-5 0 -11 -12 -13 -27 -2 -16 1 -44 7 -63 7 -26 15 -35 28 -32 9 2 17 0 17 -3
0 -4 -12 -20 -27 -36 -16 -16 -36 -29 -45 -29 -10 0 -21 -8 -26 -17 -5 -10
-12 -34 -16 -53 -4 -24 -3 -30 3 -20 6 8 14 11 18 6 4 -4 9 -21 9 -37 1 -16 3
-37 4 -46 1 -11 5 -6 10 12 4 17 8 51 9 78 0 26 6 47 11 47 6 0 10 -9 10 -20
0 -11 7 -20 15 -20 8 0 15 -4 15 -9 0 -5 -7 -17 -16 -25 -9 -10 -19 -46 -24
-93 -4 -43 -13 -90 -19 -105 -6 -18 -18 -28 -31 -28 -13 0 -22 9 -26 25 -3 14
-3 42 0 63 4 20 9 54 13 75 3 22 1 43 -5 49 -7 7 -14 -2 -21 -30 -6 -22 -18
-45 -26 -52 -8 -7 -15 -19 -15 -26 0 -8 -4 -14 -9 -14 -5 0 -12 7 -15 16 -4 9
4 28 19 46 14 16 25 33 25 38 0 4 -6 10 -14 13 -8 3 -22 -3 -31 -13 -12 -13
-18 -39 -19 -82 -1 -42 -8 -72 -20 -90 -10 -16 -22 -28 -27 -28 -5 0 -9 5 -9
12 0 6 7 20 17 30 11 13 17 38 17 88 2 65 4 73 30 94 l29 22 -16 64 c-9 35
-21 68 -27 74 -6 6 -15 -3 -25 -27 -8 -20 -15 -44 -15 -54 0 -10 -6 -38 -14
-63 -11 -36 -18 -45 -37 -46 -13 -1 -27 3 -31 10 -4 6 -8 28 -8 49 0 26 -4 37
-15 37 -8 0 -15 5 -15 11 0 6 9 9 20 6 16 -4 18 -1 13 24 -3 17 -1 29 5 29 5
0 12 -8 15 -19 2 -10 2 -41 -1 -70 -4 -41 -2 -51 11 -51 10 0 19 17 27 53 6
28 13 62 16 74 3 18 1 21 -12 16 -14 -5 -15 -1 -9 25 5 24 3 32 -7 32 -8 0
-44 -31 -80 -69 -36 -38 -75 -72 -86 -75 -13 -4 -25 -26 -37 -66 -10 -32 -24
-61 -31 -64 -8 -3 -21 -3 -29 0 -8 4 -15 11 -15 16 0 6 7 8 15 4 9 -3 19 3 25
15 6 11 9 25 6 32 -2 7 -8 2 -11 -10 -4 -13 -11 -23 -16 -23 -5 0 -9 6 -9 14
0 8 -9 18 -20 21 -11 3 -20 14 -20 23 0 8 23 37 52 63 42 39 49 51 39 63 -6 7
-21 12 -31 9 -11 -3 -20 0 -20 6 0 6 11 13 24 17 14 3 29 3 35 0 5 -4 13 -2
16 4 4 6 -7 16 -24 23 -17 6 -30 16 -28 21 2 6 -8 21 -21 33 -14 13 -38 23
-54 23 -25 0 -27 -2 -18 -19 6 -13 7 -36 0 -68 -5 -27 -14 -61 -21 -76 -6 -14
-9 -33 -5 -42 5 -14 9 -15 20 -6 8 7 16 31 19 54 3 23 9 59 15 80 6 21 12 41
15 43 2 2 12 2 21 -2 10 -4 16 -17 16 -35 0 -18 -5 -29 -14 -29 -7 0 -18 -12
-24 -27 -6 -16 -13 -44 -14 -63 -2 -27 -9 -38 -31 -48 -19 -9 -26 -19 -23 -29
4 -8 -5 -28 -18 -44 -19 -22 -23 -35 -17 -56 4 -16 12 -28 17 -28 5 0 11 11
14 26 3 14 14 38 26 54 14 19 27 26 38 22 9 -4 16 -11 16 -17 0 -5 -5 -10 -11
-10 -6 0 -19 -10 -30 -22 -10 -13 -18 -33 -19 -46 0 -15 -9 -26 -26 -33 -15
-5 -29 -8 -31 -5 -3 2 -9 23 -14 45 -7 32 -6 48 6 71 8 16 12 36 9 44 -4 10
-1 16 9 16 12 0 14 9 10 39 -3 21 0 48 6 59 6 12 15 42 20 67 5 25 5 47 1 50
-3 2 -21 -11 -38 -30 -22 -22 -45 -35 -72 -40 -30 -5 -43 -13 -52 -33 -10 -20
-21 -27 -43 -27 -28 0 -30 3 -29 35 0 19 8 51 17 71 16 36 16 36 -8 47 -20 9
-23 9 -19 -3 3 -8 -2 -39 -10 -69 -10 -33 -24 -60 -36 -66 -12 -6 -20 -21 -20
-35 0 -14 4 -25 10 -25 5 0 8 -17 7 -37 -1 -27 2 -38 12 -38 8 0 17 7 22 15 4
8 11 32 14 53 3 20 11 37 17 37 6 0 8 -13 4 -35 -6 -29 -4 -34 9 -29 9 4 15 1
15 -9 0 -8 5 -17 11 -19 5 -2 7 -11 4 -21 -4 -9 -11 -17 -16 -17 -5 0 -12 7
-16 16 -5 13 -9 12 -28 -6 -18 -17 -27 -19 -48 -11 -15 6 -28 15 -28 21 -1 5
-3 22 -4 38 -2 15 -6 47 -10 72 -4 25 -7 52 -6 60 0 8 3 30 7 48 3 17 11 32
16 32 7 0 8 -19 4 -52 l-6 -53 20 23 c11 13 24 42 30 63 6 22 8 44 5 49 -3 6
-10 10 -15 10 -5 0 -7 -7 -4 -15 4 -8 2 -15 -4 -15 -5 0 -12 6 -15 14 -3 8
-21 16 -39 18 -28 3 -33 8 -39 38 -5 20 -4 36 2 38 5 2 9 21 9 43 0 22 5 39
11 39 8 0 10 -20 7 -60 -3 -45 -1 -60 9 -60 7 0 13 -4 13 -9 0 -5 21 -11 48
-14 26 -3 58 -8 72 -12 21 -5 28 -1 43 25 9 18 17 39 17 48 0 12 -5 11 -24 -7
-14 -13 -30 -20 -36 -16 -7 4 -23 2 -36 -6 -13 -7 -27 -9 -31 -6 -3 4 1 15 11
25 10 12 14 26 10 37 -4 9 -17 27 -29 39 -12 12 -27 20 -33 18 -7 -2 -12 1
-12 7 0 5 4 21 10 35 7 20 6 24 -6 19 -8 -3 -19 -14 -25 -24 -5 -11 -16 -19
-24 -19 -8 0 -15 3 -15 6 0 4 14 22 31 41 24 28 29 41 24 62 -3 14 -18 36 -32
48 -15 12 -24 27 -20 35 3 8 2 20 -3 27 -5 9 -12 3 -21 -18 -8 -17 -17 -31
-21 -31 -5 0 -8 11 -8 25 0 14 -4 25 -10 25 -5 0 -10 9 -10 20 0 10 5 31 12
45 6 15 18 25 27 23z m-1592 -8 c5 0 14 -14 20 -31 7 -17 9 -37 6 -45 -3 -8
-20 -29 -39 -48 -19 -19 -34 -43 -34 -54 0 -11 -11 -27 -25 -36 -14 -9 -25
-25 -25 -34 0 -10 -13 -31 -29 -46 -21 -20 -35 -26 -50 -21 -12 3 -21 13 -21
20 0 12 -5 12 -25 3 -18 -8 -22 -15 -15 -22 5 -5 10 -18 10 -28 0 -9 8 -21 17
-27 15 -8 15 -13 5 -36 -7 -14 -12 -48 -12 -74 0 -27 -7 -64 -15 -84 -8 -19
-27 -44 -42 -55 -22 -16 -28 -30 -33 -76 -3 -31 -3 -56 2 -56 4 0 10 -11 14
-25 3 -14 9 -25 14 -25 4 0 14 8 23 18 8 9 18 28 22 42 3 14 1 47 -5 74 -6 27
-8 51 -5 54 3 3 8 2 12 -1 3 -4 12 -37 19 -74 l12 -67 -30 -38 c-16 -21 -34
-38 -38 -38 -5 0 -10 -12 -12 -27 -2 -22 -9 -29 -30 -31 -18 -2 -30 3 -37 16
-6 11 -16 39 -22 63 -7 24 -12 67 -13 96 -1 29 -5 55 -9 60 -5 4 -12 1 -17 -7
-5 -8 -12 -37 -16 -64 -3 -28 -3 -51 2 -53 5 -2 8 -49 8 -106 -1 -56 -2 -110
-3 -119 -1 -13 -10 -18 -31 -18 -17 0 -32 6 -34 13 -3 6 -7 24 -10 39 -4 15
-16 37 -29 48 -20 19 -22 29 -19 98 2 58 8 86 26 117 13 22 29 65 36 95 7 30
21 73 31 96 9 23 28 65 42 95 14 30 29 66 32 81 4 15 13 32 21 39 8 6 14 25
14 42 l0 31 -28 -27 c-27 -26 -29 -26 -73 -13 l-46 14 -88 -79 c-53 -47 -98
-79 -111 -79 -12 0 -33 -9 -47 -20 -14 -12 -24 -27 -21 -34 3 -9 -5 -16 -22
-20 -14 -4 -28 -5 -31 -2 -3 2 0 13 6 24 6 11 24 32 42 46 17 14 40 26 53 26
13 0 57 31 111 80 51 45 89 86 87 95 -2 8 4 15 11 15 8 0 17 -8 20 -19 3 -13
16 -20 41 -23 29 -3 41 1 59 20 12 14 39 35 59 48 21 13 44 24 52 24 7 0 19 7
26 15 8 9 21 13 32 9 14 -4 28 4 53 33 25 29 36 35 45 27 9 -9 3 -20 -27 -48
-21 -19 -45 -36 -53 -36 -8 0 -31 -6 -50 -13 -20 -6 -48 -20 -62 -29 -25 -16
-26 -20 -15 -54 6 -20 19 -39 30 -43 14 -5 32 5 68 38 27 24 49 50 49 58 0 7
4 13 9 13 5 0 12 -7 15 -17 4 -10 -3 -26 -21 -45 -21 -22 -24 -31 -15 -40 9
-9 18 -6 37 12 14 13 25 32 25 42 0 9 11 25 24 34 14 8 28 29 31 45 4 16 20
40 36 52 27 19 29 25 24 59 -4 21 -3 38 2 38z m1065 0 c4 0 8 -6 8 -13 0 -7
-6 -25 -12 -40 -7 -15 -16 -27 -20 -27 -4 0 -10 4 -13 10 -3 5 2 23 12 40 9
16 21 30 25 30z m-282 -10 c6 0 10 -6 10 -14 0 -8 -10 -30 -22 -49 -13 -19
-34 -39 -48 -46 -14 -6 -39 -21 -56 -34 -25 -18 -28 -25 -18 -35 7 -7 17 -12
23 -12 5 0 11 7 15 15 3 8 10 15 16 15 5 0 10 -6 10 -14 0 -8 -9 -24 -21 -37
-14 -17 -22 -20 -25 -11 -3 6 -10 12 -15 12 -5 0 -19 10 -30 21 -17 17 -19 23
-8 30 7 4 10 11 6 15 -3 4 -13 1 -22 -6 -8 -7 -15 -20 -15 -29 0 -10 -13 -38
-30 -64 -24 -38 -35 -47 -59 -47 -25 0 -30 -5 -35 -35 -5 -22 -13 -35 -23 -35
-10 0 -13 5 -8 18 4 9 10 25 13 36 4 15 1 17 -15 12 -14 -4 -23 -1 -27 9 -3 8
-12 15 -21 15 -8 0 -15 5 -15 10 0 6 7 13 15 16 8 3 24 -1 37 -10 12 -9 39
-16 60 -16 27 0 41 6 52 22 14 20 14 24 0 39 -10 11 -13 26 -9 42 5 18 1 31
-15 47 -12 12 -19 24 -16 27 3 3 12 3 21 -1 9 -3 24 -25 35 -48 13 -30 19 -37
19 -22 1 12 8 27 16 34 8 7 26 10 39 8 19 -4 23 -1 18 10 -4 12 -1 14 12 9 9
-4 32 0 49 9 18 9 42 28 54 43 12 14 22 32 23 39 0 6 5 12 10 12z m1032 0 c4
0 10 -5 13 -10 3 -6 -3 -23 -14 -39 -12 -16 -21 -34 -21 -40 0 -6 -11 -11 -25
-11 -14 0 -28 -7 -32 -16 -3 -9 1 -31 10 -50 11 -21 24 -34 36 -34 16 0 22 11
31 58 6 31 13 63 15 70 3 6 12 12 21 12 12 0 14 -5 9 -17 -4 -10 -14 -45 -22
-78 -8 -33 -20 -68 -28 -79 -13 -18 -15 -18 -43 2 -15 12 -37 39 -47 61 -15
34 -16 45 -5 70 9 22 18 30 33 28 15 -1 27 8 42 35 11 21 23 38 27 38z m879
-30 c7 0 22 -11 35 -25 13 -14 42 -52 63 -83 22 -31 56 -74 75 -95 31 -34 37
-36 55 -25 11 7 24 9 28 4 4 -4 -2 -15 -14 -23 l-23 -15 29 -42 c16 -23 36
-48 45 -55 9 -8 16 -22 16 -32 0 -11 -3 -19 -6 -19 -4 0 -13 8 -21 18 -8 9
-37 51 -64 92 -43 65 -50 72 -55 53 -4 -13 -11 -23 -16 -23 -6 0 -8 12 -5 29
4 20 1 33 -10 42 -9 8 -34 41 -57 75 -22 33 -47 59 -53 57 -8 -3 -13 4 -13 16
0 11 -4 23 -10 26 -5 3 -10 10 -10 16 0 5 5 9 11 9z m-1838 -30 c4 0 6 -9 2
-20 -3 -11 -3 -25 0 -31 5 -7 12 -6 23 4 10 8 35 20 57 26 37 10 41 9 67 -20
15 -17 28 -34 28 -40 0 -5 -5 -9 -10 -9 -6 0 -13 7 -16 15 -4 8 -12 15 -20 15
-8 0 -14 5 -14 10 0 7 -7 7 -21 0 -11 -6 -25 -10 -32 -7 -6 2 -19 -6 -28 -17
-16 -20 -18 -20 -36 -3 -11 9 -23 17 -26 17 -4 0 -7 -7 -7 -15 0 -8 -5 -15
-10 -15 -6 0 -15 -20 -22 -45 -7 -25 -16 -45 -20 -45 -4 0 -8 11 -8 24 0 12 5
37 11 54 6 17 19 34 30 37 10 4 19 14 19 24 0 9 5 22 12 29 7 7 16 12 21 12z
m427 -60 c6 0 10 -4 10 -10 0 -5 -9 -28 -21 -50 -14 -27 -19 -49 -15 -66 5
-19 3 -25 -6 -22 -7 3 -14 16 -16 31 -2 14 6 46 18 71 11 25 25 46 30 46z
m241 -110 c6 0 9 -15 7 -36 -2 -21 -10 -42 -20 -48 -9 -5 -20 -7 -24 -3 -4 4
0 15 9 25 10 10 17 28 17 40 0 12 5 22 11 22z m-830 -10 c6 0 9 -8 7 -17 -2
-11 -14 -19 -31 -21 -15 -2 -27 -8 -27 -13 0 -5 -9 -9 -20 -9 -11 0 -20 -7
-20 -15 0 -8 -3 -15 -6 -15 -3 0 -14 10 -25 23 -10 12 -18 28 -19 35 0 6 2 12
5 12 3 0 14 -6 25 -12 16 -10 24 -10 40 0 11 6 29 12 40 12 11 0 20 5 20 10 0
6 5 10 11 10z m730 -12 c8 -2 15 -17 17 -31 2 -15 -1 -27 -7 -27 -6 0 -11 6
-11 14 0 8 -3 22 -7 32 -4 12 -2 15 8 12z m-1959 -68 c4 0 8 -3 8 -7 0 -3 -11
-29 -25 -58 -13 -28 -31 -58 -39 -65 -9 -7 -13 -16 -10 -21 3 -5 9 -9 14 -9 5
0 16 14 25 30 9 17 21 30 28 30 7 0 18 -13 25 -30 8 -16 11 -34 7 -40 -3 -5
-11 -10 -17 -10 -5 0 -8 7 -4 15 3 8 1 15 -5 15 -6 0 -22 -13 -36 -30 -13 -16
-29 -30 -35 -30 -6 0 -8 9 -5 20 3 11 0 20 -6 20 -6 0 -21 -10 -34 -22 -13
-12 -23 -27 -23 -35 0 -7 -4 -13 -9 -13 -5 0 -14 7 -21 15 -10 12 -8 18 11 35
13 10 27 19 30 20 3 0 22 24 41 53 19 28 44 67 54 85 10 17 22 32 26 32z m419
0 c5 0 9 -7 9 -15 0 -9 -6 -28 -14 -43 -8 -15 -13 -40 -12 -57 1 -16 5 -36 10
-43 4 -7 6 -15 4 -17 -2 -3 -21 3 -41 13 -20 9 -36 23 -37 30 0 9 7 11 20 7
16 -5 20 -2 20 19 0 14 7 44 16 66 9 22 20 40 25 40z m-566 -90 c11 0 15 -5
11 -15 -3 -9 0 -15 9 -15 8 0 15 -3 15 -7 0 -5 -21 -20 -46 -35 -25 -16 -48
-28 -52 -28 -4 0 -15 -12 -24 -28 -9 -15 -14 -38 -11 -54 3 -18 -1 -32 -16
-47 -12 -12 -25 -21 -31 -21 -5 0 -10 4 -10 9 0 6 4 13 10 16 5 3 15 15 20 26
6 10 7 19 3 19 -4 0 -34 -29 -66 -65 -53 -59 -57 -67 -43 -81 9 -8 16 -20 16
-25 0 -5 -5 -9 -11 -9 -6 0 -13 9 -16 20 -3 11 -7 20 -10 20 -3 0 -16 -9 -30
-20 -14 -11 -34 -20 -44 -20 -11 0 -19 5 -19 10 0 6 5 10 12 10 6 0 36 24 67
52 31 29 61 62 68 73 7 11 10 28 7 38 -4 11 1 24 13 32 10 8 21 15 26 15 4 0
7 -5 7 -11 0 -7 -8 -18 -17 -25 -11 -8 -13 -13 -5 -14 6 0 27 21 46 48 19 26
52 58 74 71 28 17 38 29 34 43 -3 12 1 18 13 18z m779 0 c13 0 31 -3 40 -6 9
-3 16 -11 16 -16 0 -5 -13 -7 -30 -3 -24 5 -30 3 -30 -9 0 -14 9 -15 55 -10
35 4 55 3 55 -3 0 -6 -10 -13 -22 -17 -13 -3 -41 -6 -63 -6 -22 0 -46 -4 -53
-9 -9 -5 -11 -17 -6 -34 3 -15 3 -27 -1 -27 -3 0 -13 6 -20 14 -8 8 -11 23 -8
37 4 13 9 26 12 29 4 3 12 17 18 33 9 19 20 27 37 27z m1218 -30 c4 0 8 -4 8
-9 0 -5 -16 -25 -35 -45 -19 -20 -44 -36 -55 -36 -11 0 -20 4 -20 10 0 5 11
12 25 16 14 3 25 10 25 15 0 4 10 17 22 29 12 11 25 20 30 20z m228 -2 c3 1
10 -2 15 -6 6 -4 17 -20 25 -37 8 -16 16 -33 18 -37 2 -5 -3 -8 -11 -8 -8 0
-20 -13 -25 -30 -6 -17 -7 -32 -2 -35 5 -3 17 7 26 22 10 15 29 40 43 56 13
15 28 27 33 27 4 0 8 -7 8 -15 0 -8 -4 -15 -9 -15 -5 0 -23 -23 -41 -51 -28
-46 -34 -50 -58 -45 -15 4 -38 10 -52 13 -13 3 -30 11 -36 18 -6 6 -21 30 -33
53 l-21 42 -38 -15 c-20 -9 -45 -25 -55 -37 -10 -12 -22 -28 -28 -37 -7 -12
-12 -13 -15 -3 -3 6 -12 12 -20 12 -8 0 -14 5 -14 10 0 6 8 10 18 10 9 0 27
11 40 24 13 14 20 30 16 40 -4 10 -1 16 9 16 8 0 17 -5 19 -11 2 -7 12 -7 32
1 16 6 36 8 45 5 9 -2 22 -18 29 -35 8 -16 18 -30 23 -30 6 0 15 14 20 30 6
17 15 30 21 30 6 0 7 -13 3 -32 -4 -18 -13 -38 -21 -44 -7 -6 -11 -14 -7 -17
3 -4 13 -7 22 -7 10 0 21 14 27 36 7 20 9 44 7 55 -4 13 -14 19 -34 19 -16 0
-29 4 -29 9 0 5 10 12 23 14 12 2 24 5 27 5z m-1580 -8 c18 0 33 -6 37 -15 3
-9 3 -19 -1 -22 -3 -4 -12 -1 -18 5 -7 7 -16 12 -20 12 -4 0 -8 -8 -8 -18 0
-10 -11 -29 -24 -41 -13 -12 -26 -35 -30 -51 -4 -24 -10 -29 -33 -27 -22 2
-30 10 -40 37 -7 19 -12 47 -12 63 -1 15 4 27 9 27 6 0 10 -8 10 -19 0 -10 5
-32 11 -49 7 -20 15 -29 25 -25 8 3 14 11 14 18 0 8 11 27 25 43 14 17 25 37
25 46 0 11 9 16 30 16z m1921 -10 c4 0 21 -11 36 -24 15 -13 25 -28 21 -32 -5
-4 -16 0 -26 9 -10 10 -26 17 -35 17 -9 0 -17 4 -17 8 0 5 3 12 7 15 3 4 10 7
14 7z m1017 -22 c4 -2 20 -10 35 -18 16 -7 26 -19 23 -27 -3 -7 1 -16 8 -20 7
-5 17 -19 21 -31 6 -19 4 -23 -10 -20 -10 1 -25 17 -34 34 -10 18 -25 39 -34
49 -9 9 -17 21 -17 27 0 5 3 8 8 6z m303 2 c4 0 21 -16 38 -35 17 -20 31 -42
31 -50 0 -8 -3 -15 -7 -15 -5 0 -21 16 -36 35 -15 19 -32 35 -38 35 -5 0 -2
-14 7 -32 9 -17 25 -40 35 -51 10 -12 19 -24 19 -29 0 -4 -6 -8 -14 -8 -8 0
-31 27 -51 61 -21 33 -36 61 -34 63 2 2 13 8 24 14 11 6 23 12 26 12z m-2121
-20 c5 0 14 -9 20 -20 6 -11 31 -30 55 -41 25 -12 45 -25 45 -29 0 -4 3 -22 6
-39 4 -19 2 -31 -4 -31 -6 0 -13 14 -17 31 -5 22 -16 35 -40 45 -18 7 -43 25
-54 40 -12 15 -21 31 -21 35 0 5 4 9 10 9z m755 -40 c8 0 15 -4 15 -10 0 -5
-7 -10 -15 -10 -8 0 -15 5 -15 10 0 6 7 10 15 10z m400 -40 c8 0 15 -4 15 -10
0 -5 -7 -10 -15 -10 -8 0 -15 5 -15 10 0 6 7 10 15 10z m-2765 -10 c5 0 10 -1
10 -3 0 -2 -7 -28 -16 -58 -9 -29 -22 -63 -30 -74 -8 -11 -14 -45 -14 -80 0
-33 -4 -65 -8 -71 -4 -7 -18 -11 -32 -10 -25 1 -25 2 -23 88 1 48 8 98 14 110
7 13 12 35 11 51 -1 15 2 27 7 27 5 0 12 -11 15 -24 3 -13 -1 -40 -9 -59 -8
-19 -17 -65 -21 -102 -6 -56 -5 -67 7 -63 10 3 14 22 14 64 0 32 5 65 12 71 6
7 19 34 28 60 10 27 19 54 21 61 2 6 8 12 14 12z m2472 -30 c10 0 18 -3 18 -6
0 -3 -16 -22 -34 -42 -19 -20 -37 -34 -39 -32 -3 3 -8 16 -12 29 -6 20 -4 23
9 18 10 -4 21 1 28 13 7 11 21 20 30 20z m1036 -12 c10 -2 18 -14 19 -28 2
-14 4 -71 5 -128 1 -67 -3 -107 -10 -114 -9 -9 -15 -9 -24 0 -10 10 -10 15 -1
20 6 4 13 37 15 75 1 37 0 67 -4 67 -4 0 -5 13 -2 29 4 16 1 32 -5 35 -6 4
-11 16 -11 27 0 14 6 19 18 17z m-2154 -11 c6 -2 10 -16 8 -31 -1 -14 -1 -26
2 -26 2 0 11 3 20 6 11 4 14 13 10 30 -3 13 -2 24 4 24 5 0 15 -6 21 -14 6 -7
8 -22 4 -32 -4 -11 -14 -25 -22 -31 -14 -11 -14 -14 -1 -22 12 -8 11 -13 -5
-31 -11 -12 -39 -33 -62 -47 -24 -14 -43 -29 -43 -34 0 -5 6 -9 14 -9 7 0 35
15 62 33 26 17 51 40 56 50 4 9 12 25 16 34 5 9 14 19 20 21 8 2 10 -6 6 -30
-4 -18 -16 -43 -28 -56 -11 -13 -43 -36 -71 -52 -33 -19 -59 -27 -73 -23 -12
3 -22 9 -22 13 0 5 -2 15 -5 22 -4 10 14 28 50 51 30 21 55 40 55 44 0 4 -9
16 -19 27 -13 15 -17 30 -14 54 3 18 10 31 17 29z m2474 3 c6 0 31 -26 56 -57
35 -44 46 -67 46 -93 0 -19 11 -59 25 -88 14 -30 25 -70 25 -89 0 -29 5 -36
29 -46 22 -8 31 -19 36 -44 4 -24 16 -40 38 -53 18 -10 38 -24 45 -30 6 -6 12
-33 12 -61 0 -44 4 -55 30 -79 21 -19 30 -38 32 -62 0 -18 2 -37 3 -43 2 -5 3
-16 4 -22 0 -7 8 -13 16 -13 8 0 24 -10 35 -22 18 -19 20 -33 18 -97 -2 -41
-8 -76 -13 -78 -7 -2 -9 21 -7 66 l4 70 -47 46 c-41 41 -46 50 -40 78 4 23 3
28 -4 17 -8 -12 -13 -12 -30 4 -18 16 -21 31 -21 97 l0 77 -44 26 c-34 20 -45
33 -50 59 -5 24 -14 35 -36 44 -26 10 -30 16 -30 50 0 21 -11 60 -25 87 -14
27 -25 55 -25 63 0 7 -9 13 -20 13 -13 0 -20 -7 -20 -19 0 -10 -7 -24 -15 -31
-9 -7 -19 -10 -22 -6 -4 4 -2 16 5 26 7 11 12 27 12 35 0 10 10 15 30 15 18 0
30 5 30 13 0 7 -6 21 -13 31 -12 17 -15 17 -29 2 -9 -9 -23 -16 -31 -16 -7 0
-19 17 -25 37 -9 29 -9 40 2 53 7 8 11 21 9 28 -3 6 0 12 5 12z m-4111 -30 c8
0 13 -3 11 -7 -2 -5 -12 -24 -21 -44 -9 -20 -23 -39 -32 -43 -13 -5 -15 -15
-9 -51 4 -32 2 -55 -9 -78 -9 -18 -27 -42 -41 -54 -14 -12 -42 -47 -61 -77
-27 -39 -44 -55 -66 -60 -16 -3 -32 -14 -35 -23 -2 -10 -18 -45 -33 -78 -16
-33 -40 -85 -55 -116 -14 -31 -26 -63 -26 -71 0 -8 -11 -27 -25 -42 -14 -15
-28 -39 -31 -54 -4 -15 -29 -72 -56 -127 -28 -56 -45 -101 -39 -103 6 -2 11
-9 11 -16 0 -7 -13 -25 -30 -41 -16 -16 -30 -33 -30 -39 0 -5 -7 -18 -17 -28
-9 -11 -11 -18 -5 -18 8 0 12 -19 12 -50 0 -44 3 -50 25 -56 13 -3 27 -14 30
-24 3 -10 3 -30 -1 -44 -3 -14 -13 -28 -22 -31 -14 -4 -16 -15 -14 -58 2 -30
-1 -71 -7 -93 -6 -21 -22 -52 -35 -69 -20 -24 -27 -27 -37 -18 -10 10 -7 17
14 36 15 12 32 38 37 57 6 19 10 52 10 72 0 21 -9 55 -20 75 -11 21 -20 44
-20 51 0 7 10 17 23 22 12 5 16 9 10 9 -9 1 -13 19 -13 56 0 30 -3 55 -7 55
-3 0 -15 -7 -25 -17 -10 -9 -21 -13 -24 -10 -4 3 11 29 32 56 22 28 48 63 59
78 11 15 18 36 17 45 -2 10 3 30 12 45 8 16 29 60 47 98 17 39 38 88 45 109 8
22 23 46 34 53 11 8 20 24 20 36 0 11 23 68 51 127 29 58 55 116 59 130 4 16
17 29 38 35 20 7 45 30 70 65 21 30 52 69 70 86 17 17 34 44 38 58 3 15 2 32
-3 37 -7 7 -16 5 -26 -5 -9 -9 -19 -16 -22 -16 -4 0 -25 -18 -46 -40 -22 -22
-43 -40 -49 -40 -5 0 -10 7 -10 15 0 8 10 20 22 26 13 7 31 23 41 36 10 12 26
23 35 23 9 0 28 16 41 35 13 19 27 35 31 35 4 0 15 18 25 40 10 22 24 40 32
40z m94 -10 c5 0 9 -8 9 -18 0 -10 -7 -27 -15 -38 -8 -10 -15 -25 -15 -33 0
-7 -14 -29 -31 -48 -24 -28 -29 -41 -24 -62 4 -14 12 -29 18 -33 7 -4 18 -8
25 -8 6 0 12 -5 12 -10 0 -6 -7 -13 -15 -17 -9 -3 -24 2 -33 10 -10 9 -24 33
-31 54 -10 27 -11 38 -2 41 6 2 11 9 11 16 0 7 9 21 21 32 11 10 30 40 41 66
11 26 24 48 29 48z m1478 0 c5 0 14 -7 21 -15 7 -9 11 -17 9 -19 -2 -2 -28 -9
-58 -15 -30 -6 -56 -9 -59 -6 -3 3 -10 1 -16 -4 -6 -5 -26 -6 -43 -4 -18 3
-33 9 -33 14 0 5 12 10 28 11 15 1 41 2 58 3 17 1 43 5 58 9 14 3 26 11 26 16
0 6 4 10 9 10z m-1639 -20 c6 0 10 -4 10 -10 0 -5 -4 -10 -10 -10 -5 0 -10 5
-10 10 0 6 5 10 10 10z m3117 0 c6 0 13 -14 17 -32 3 -17 3 -47 0 -65 -3 -18
-10 -36 -15 -39 -5 -3 -9 -14 -9 -25 0 -10 -5 -19 -10 -19 -6 0 -13 6 -15 13
-3 7 3 29 14 50 13 26 17 49 14 77 -3 24 -2 40 4 40z m-2910 -30 c11 0 13 -5
8 -17 -4 -10 -14 -54 -21 -98 -8 -44 -17 -99 -20 -122 -4 -24 -10 -43 -14 -43
-4 0 -10 14 -14 31 -3 19 0 44 8 63 8 17 18 58 21 91 4 33 9 68 11 78 3 9 12
17 21 17z m3340 -10 c5 0 14 -24 20 -52 6 -31 7 -57 2 -62 -5 -5 -11 -8 -13
-5 -2 2 -7 30 -11 62 -4 33 -3 57 2 57z m623 -40 c11 0 20 -4 20 -10 0 -5 -9
-10 -20 -10 -11 0 -20 5 -20 10 0 6 9 10 20 10z m-1531 -110 c3 0 6 -35 5 -77
-1 -65 3 -86 24 -126 14 -26 23 -50 19 -53 -3 -3 -11 -3 -17 1 -7 4 -21 26
-31 49 -13 28 -19 64 -19 117 0 42 3 79 7 82 3 4 9 7 12 7z m901 0 c6 0 10
-15 10 -32 -1 -18 -9 -48 -18 -67 -9 -19 -25 -39 -34 -45 -9 -6 -20 -7 -24 -3
-4 4 2 17 13 30 11 12 26 32 32 44 6 12 11 33 11 47 0 14 5 26 10 26z m-3640
-10 c6 0 13 -7 17 -15 3 -9 2 -19 -1 -23 -4 -3 -11 0 -16 8 -6 8 -10 18 -10
23 0 4 5 7 10 7z m150 -50 c6 0 10 -3 10 -6 0 -3 -5 -26 -11 -52 -6 -26 -18
-62 -27 -79 -9 -18 -20 -33 -24 -33 -5 0 -8 7 -8 16 0 9 7 28 15 42 8 15 19
46 25 70 6 23 15 42 20 42z m2630 -20 c6 0 10 -11 10 -25 0 -14 7 -42 15 -62
8 -19 15 -37 15 -39 0 -2 -5 -4 -11 -4 -5 0 -17 16 -25 35 -7 19 -14 48 -14
65 0 16 5 30 10 30z m-2699 -10 c7 0 8 -12 4 -32 -4 -18 -21 -77 -38 -131 -24
-76 -29 -100 -19 -106 7 -4 10 -15 6 -24 -3 -9 -12 -17 -18 -17 -8 0 -13 16
-14 42 -1 25 10 78 27 128 16 47 32 97 36 113 3 15 10 27 16 27z m99 -40 c6 0
10 -12 10 -28 0 -15 -9 -45 -21 -66 -11 -21 -18 -41 -15 -43 3 -3 12 0 21 7 9
7 18 10 21 7 3 -3 -1 -15 -8 -26 -11 -18 -11 -23 2 -31 12 -8 15 -38 15 -171
0 -156 1 -162 23 -176 12 -9 22 -20 22 -25 0 -5 -9 -6 -20 -3 -18 6 -20 2 -21
-42 -1 -26 -3 -70 -5 -98 -2 -27 -6 -60 -9 -72 -3 -13 -10 -23 -16 -23 -6 0
-7 17 -3 48 4 26 7 144 8 262 1 189 -1 221 -18 269 -18 49 -21 52 -34 35 -8
-11 -27 -47 -43 -81 -17 -38 -34 -63 -44 -63 -8 0 -15 3 -15 8 0 4 9 18 20 32
11 14 20 32 20 41 0 9 13 36 30 60 16 24 30 49 30 54 0 6 9 27 20 48 11 20 20
46 20 57 0 11 5 20 10 20z m710 -20 c6 0 10 -13 10 -29 0 -16 7 -34 15 -41 8
-7 15 -19 15 -26 0 -8 -3 -14 -6 -14 -4 0 -15 10 -25 22 -11 11 -19 36 -19 55
0 18 5 33 10 33z m2919 -60 c5 0 16 -19 26 -42 9 -23 23 -109 31 -192 8 -83
19 -166 25 -184 6 -18 8 -36 4 -40 -4 -4 -13 2 -21 12 -8 11 -14 35 -14 54 0
19 -8 47 -17 63 -14 24 -15 31 -5 38 11 6 11 27 3 105 -6 53 -18 113 -26 133
-8 19 -15 39 -15 44 0 5 4 9 9 9z m-3863 -30 c8 0 14 -5 14 -10 0 -6 -7 -13
-15 -17 -9 -3 -18 -3 -21 0 -3 3 -3 10 1 16 3 6 13 11 21 11z m14 -60 c6 0 10
-24 10 -54 0 -29 5 -78 10 -107 6 -30 13 -62 16 -71 3 -11 0 -18 -9 -18 -9 0
-17 21 -25 68 -6 37 -12 87 -13 112 -1 25 -1 51 0 58 0 6 6 12 11 12z m2160
-50 c6 0 10 -8 10 -17 0 -9 -8 -26 -18 -37 -10 -12 -29 -46 -41 -76 -12 -30
-32 -71 -45 -90 -12 -19 -43 -66 -67 -105 -24 -38 -48 -73 -54 -77 -5 -4 -13
-8 -17 -8 -5 0 -8 7 -8 15 0 8 4 15 8 15 5 0 26 28 49 63 22 34 56 89 75 122
19 33 41 76 48 95 7 19 22 44 32 56 10 11 18 26 18 32 0 7 5 12 10 12z m775
-50 c8 0 15 -4 15 -9 0 -6 -4 -13 -10 -16 -5 -3 -10 -21 -10 -38 0 -18 -7 -68
-15 -112 -9 -44 -21 -107 -28 -139 -7 -33 -18 -61 -25 -64 -9 -3 -11 4 -7 25
4 15 13 53 20 83 7 30 18 93 25 140 6 47 14 95 16 108 2 12 11 22 19 22z m419
-13 c6 -2 11 -15 12 -28 1 -13 9 -39 18 -57 9 -18 19 -47 21 -65 3 -18 8 -61
11 -97 4 -36 6 -85 5 -110 -1 -25 -8 -51 -16 -59 -8 -8 -18 -12 -21 -8 -4 4
-2 18 5 30 9 17 11 50 7 107 -3 46 -11 107 -17 136 -8 35 -17 54 -27 54 -9 0
-13 7 -9 19 2 10 0 25 -4 34 -5 8 -6 23 -3 32 4 9 12 14 18 12z m1085 -67 c6
0 11 -6 11 -14 0 -7 7 -38 16 -67 9 -30 20 -62 25 -71 5 -10 9 -26 9 -37 0
-11 -3 -26 -6 -35 -3 -9 -10 -16 -16 -16 -5 0 -6 15 -3 34 4 20 2 36 -4 40 -6
4 -11 17 -11 30 0 12 -4 26 -9 32 -5 5 -12 30 -16 57 -5 32 -4 47 4 47z m209
-20 c5 0 14 -10 20 -22 6 -13 13 -41 14 -63 3 -35 6 -40 26 -38 13 2 22 -3 22
-11 0 -7 -10 -16 -22 -19 -12 -4 -28 -1 -35 5 -7 6 -13 31 -13 59 0 26 -4 51
-10 54 -5 3 -10 13 -10 21 0 8 4 14 8 14z m-1388 -40 c6 0 10 -4 10 -10 0 -5
8 -10 18 -10 9 -1 28 -10 41 -21 19 -15 22 -22 12 -28 -8 -6 -10 -19 -6 -44 4
-19 4 -45 0 -56 -3 -12 -9 -21 -13 -21 -4 0 -8 28 -9 62 -1 47 -6 65 -19 75
-10 7 -23 13 -30 13 -8 0 -15 -24 -19 -65 -4 -36 -4 -84 -1 -108 4 -24 4 -51
0 -60 -3 -9 -13 -17 -20 -17 -12 0 -14 15 -9 78 3 42 8 100 11 127 4 28 10 58
16 68 5 9 13 17 18 17z m933 -21 c9 1 17 -4 17 -9 0 -6 -13 -13 -30 -16 -16
-4 -36 -17 -45 -30 -8 -13 -15 -32 -15 -43 0 -11 -3 -26 -6 -35 -3 -9 -11 -16
-16 -16 -6 0 -8 15 -4 38 4 20 12 49 17 64 6 15 23 31 38 37 14 5 34 10 44 10z
m326 -109 c5 0 13 -6 19 -12 5 -7 13 -33 17 -58 4 -25 18 -58 31 -73 18 -22
24 -41 24 -78 0 -27 3 -49 8 -50 4 0 17 -2 30 -3 12 -2 22 1 22 6 0 4 7 8 15
8 8 0 15 -4 15 -9 0 -5 -6 -14 -13 -20 -8 -6 -24 -12 -38 -13 -13 -2 -28 -7
-34 -13 -5 -5 -11 -30 -13 -55 -2 -25 7 -90 19 -145 12 -55 31 -112 41 -127
10 -14 18 -31 18 -38 0 -6 12 -38 28 -70 15 -33 33 -59 40 -60 6 0 12 -4 12
-10 0 -5 -6 -10 -13 -10 -8 0 -20 -11 -27 -25 -7 -14 -17 -25 -22 -25 -4 0 -8
3 -8 8 0 4 4 22 10 41 8 30 4 43 -39 126 -27 51 -49 104 -49 117 0 12 -10 63
-20 111 -11 49 -18 105 -16 125 3 20 9 39 14 42 4 3 5 33 1 67 -5 42 -14 70
-28 85 -13 14 -24 44 -28 75 -4 29 -11 55 -16 59 -5 3 -9 9 -9 15 0 5 4 9 9 9z
m-120 -20 c5 0 11 -7 15 -15 3 -8 12 -15 19 -15 8 0 22 -9 33 -21 10 -11 19
-36 21 -55 1 -19 -2 -34 -6 -34 -5 0 -13 12 -19 28 -6 15 -13 35 -16 45 -3 9
-14 17 -25 17 -10 0 -22 7 -25 16 -3 9 -6 20 -6 25 0 5 4 9 9 9z m189 -30 c4
0 20 -18 35 -41 15 -22 27 -52 27 -65 0 -13 -4 -24 -10 -24 -5 0 -10 7 -10 16
0 9 -8 28 -19 42 -10 15 -22 37 -25 50 -4 12 -3 22 2 22z m-3953 -50 c11 0 13
-7 9 -28 -3 -16 5 -72 19 -128 14 -56 23 -113 20 -132 -4 -27 -3 -31 11 -26 9
3 16 2 16 -3 0 -6 -8 -20 -19 -31 -10 -12 -21 -22 -23 -22 -3 0 -6 31 -7 69
-1 39 -10 105 -21 148 -11 43 -20 95 -20 116 0 26 4 37 15 37z m4130 0 c8 0
15 -7 15 -16 0 -8 -5 -24 -10 -35 -6 -10 -17 -19 -25 -19 -8 0 -15 4 -15 9 0
6 5 13 10 16 6 3 10 15 10 26 0 10 7 19 15 19z m-4083 -20 c9 0 18 -24 26 -67
7 -37 20 -76 30 -86 9 -11 15 -33 15 -55 -1 -20 -6 -66 -10 -102 -6 -50 -12
-66 -25 -68 -10 -2 -18 1 -18 7 0 5 5 13 10 16 6 3 10 33 10 66 0 33 4 59 10
59 6 0 10 8 10 17 0 9 -10 27 -21 39 -12 13 -23 34 -24 48 -2 13 -6 39 -10 58
-3 18 -9 41 -11 51 -3 10 0 17 8 17z m4006 -20 c5 0 16 -15 25 -32 9 -18 26
-55 38 -83 13 -27 25 -52 28 -55 3 -3 26 -33 50 -68 24 -35 41 -65 38 -68 -2
-2 -10 -2 -18 1 -8 3 -27 28 -44 55 -16 27 -36 50 -42 50 -7 0 -13 8 -13 18 0
10 -9 35 -20 57 -11 22 -20 44 -20 51 0 6 -7 17 -15 24 -8 7 -15 21 -15 31 0
11 4 19 8 19z m-199 -30 c6 0 14 -12 17 -27 4 -15 13 -38 20 -52 8 -14 14 -32
14 -38 0 -7 -4 -13 -10 -13 -5 0 -16 15 -24 34 -7 18 -17 47 -21 65 -4 19 -3
31 4 31z m-4137 -70 c7 0 9 -16 4 -46 -4 -30 -1 -57 9 -81 8 -19 15 -46 15
-59 0 -12 5 -26 10 -29 6 -4 10 9 10 30 0 21 -7 64 -16 97 -8 33 -13 63 -9 66
3 3 9 1 14 -4 4 -5 13 -30 20 -56 6 -26 11 -63 11 -83 0 -20 7 -47 17 -61 12
-19 18 -22 25 -12 8 10 11 10 15 0 2 -7 19 15 36 48 17 33 34 60 37 60 4 0 14
-8 23 -17 9 -10 25 -27 35 -39 11 -12 22 -34 25 -50 3 -16 1 -37 -4 -46 -5
-10 -20 -18 -33 -18 -14 0 -50 -10 -83 -22 -32 -12 -75 -37 -96 -57 -21 -20
-47 -53 -58 -73 -10 -21 -19 -45 -19 -56 0 -10 -5 -23 -11 -29 -7 -7 -7 -13
-1 -17 6 -4 18 18 27 51 9 32 27 72 40 89 13 17 50 43 82 59 32 15 84 32 115
38 45 8 60 8 73 -3 13 -11 15 -24 11 -51 -4 -25 -2 -39 7 -42 8 -3 5 -10 -9
-23 -12 -11 -28 -33 -37 -51 -12 -23 -13 -33 -5 -35 9 -3 9 -12 -1 -37 -8 -17
-26 -49 -41 -70 -16 -21 -40 -63 -54 -93 -14 -30 -26 -67 -26 -81 0 -15 -4
-27 -9 -27 -5 0 -11 6 -14 14 -3 8 0 34 8 58 7 23 23 62 36 84 13 23 37 60 52
81 23 34 26 44 17 67 -9 23 -6 32 19 64 16 20 31 54 34 74 4 24 1 41 -7 47 -8
6 -28 8 -47 5 -19 -4 -62 -20 -96 -36 -36 -17 -73 -43 -88 -62 -14 -18 -35
-62 -46 -97 -14 -41 -21 -89 -21 -137 1 -40 4 -97 7 -126 6 -44 11 -55 29 -60
11 -3 34 -6 49 -6 16 0 37 5 49 11 11 6 23 8 26 4 4 -4 -2 -13 -13 -22 -16
-11 -36 -14 -94 -9 -43 4 -79 2 -86 -4 -6 -5 -45 -11 -86 -12 l-74 -3 -3 40
c-1 22 1 60 5 84 7 40 13 47 58 72 28 15 55 28 60 28 6 0 17 -3 25 -9 8 -5 17
-32 21 -62 4 -38 6 -22 6 57 0 65 -5 114 -11 120 -6 5 -39 10 -73 10 -35 1
-63 -3 -63 -7 0 -4 -6 -8 -13 -8 -8 0 -11 -13 -9 -44 3 -38 0 -49 -27 -77 -29
-30 -31 -38 -32 -103 0 -39 -1 -101 -2 -139 -1 -39 -6 -66 -12 -64 -5 2 -10
33 -9 68 1 35 4 127 7 204 4 77 9 156 13 177 4 26 12 38 27 42 12 3 24 3 27 0
3 -3 -3 -11 -12 -18 -10 -7 -15 -16 -11 -19 3 -4 17 -7 30 -7 19 0 23 5 23 30
0 16 9 37 19 47 11 10 29 41 41 68 12 28 28 66 37 85 8 19 18 42 22 50 5 8 17
17 27 19 10 2 22 8 26 15 4 6 5 27 2 46 -3 19 -10 50 -16 68 -5 19 -7 53 -3
78 3 24 11 44 17 44z m144 -70 c10 0 14 -6 10 -15 -3 -8 -1 -15 4 -15 6 0 10
-4 10 -10 0 -5 -6 -10 -14 -10 -8 0 -23 -11 -34 -25 -11 -14 -22 -25 -25 -25
-3 0 -8 7 -11 16 -4 10 3 23 19 36 14 11 25 26 25 34 0 8 7 14 16 14z m4235 0
c5 0 9 -6 9 -14 0 -7 -7 -19 -16 -27 -11 -9 -14 -23 -11 -43 3 -17 9 -44 13
-61 4 -16 15 -42 25 -57 11 -14 19 -38 19 -53 0 -17 9 -35 26 -47 14 -11 23
-26 20 -34 -3 -7 0 -14 6 -16 6 -2 16 -38 21 -79 5 -41 10 -119 11 -174 1 -55
5 -106 10 -114 5 -7 3 -29 -4 -52 -7 -21 -17 -39 -23 -39 -5 0 -6 -11 -3 -24
3 -13 -1 -37 -9 -52 -8 -16 -15 -34 -15 -41 0 -6 -8 -18 -18 -25 -10 -7 -24
-34 -30 -60 -9 -36 -9 -53 -1 -72 9 -20 9 -42 -1 -93 -7 -38 -14 -88 -17 -113
-2 -25 -6 -55 -9 -67 -3 -16 -12 -23 -29 -23 -14 0 -25 5 -25 10 0 6 6 10 14
10 8 0 17 8 20 18 2 9 8 49 12 87 4 39 8 75 9 80 1 6 5 18 9 28 5 11 4 34 -4
56 -9 28 -9 47 -1 77 6 21 11 51 11 67 0 15 -4 27 -9 27 -5 0 -13 12 -19 28
-5 15 -15 46 -22 68 -7 23 -9 47 -5 53 3 6 12 11 18 10 7 -1 18 -1 26 0 10 1
12 12 8 43 -4 29 -14 50 -31 65 -14 12 -26 25 -26 28 0 3 7 5 15 5 8 0 15 5
15 10 0 6 5 10 10 10 6 0 10 -6 10 -14 0 -7 7 -27 15 -42 8 -16 15 -53 15 -82
0 -37 -4 -52 -12 -51 -7 1 -21 1 -30 0 -14 -1 -16 -5 -8 -23 5 -13 11 -35 14
-50 3 -15 12 -33 19 -40 8 -7 16 -20 19 -28 5 -13 6 -13 12 0 3 8 11 29 17 45
7 17 11 42 10 58 -2 15 1 27 6 27 5 0 14 14 21 32 8 23 9 35 1 45 -6 7 -9 22
-6 32 2 11 0 75 -5 143 -5 67 -11 135 -12 151 -2 15 -10 33 -18 40 -9 6 -18
19 -21 27 -3 8 -6 -2 -6 -22 -1 -21 -5 -38 -11 -38 -6 0 -10 31 -10 73 0 40
-5 78 -10 83 -6 6 -19 35 -30 65 -11 29 -20 70 -20 89 0 20 7 46 16 58 8 12
19 22 25 22z m-4146 -50 c8 0 15 -4 15 -10 0 -5 -7 -10 -15 -10 -8 0 -15 5
-15 10 0 6 7 10 15 10z m4068 -43 c6 -2 11 -14 10 -26 -2 -12 13 -69 32 -128
20 -58 33 -108 30 -112 -3 -3 -10 1 -16 9 -5 8 -22 57 -39 109 -16 52 -30 107
-30 123 0 19 4 28 13 25z m-4183 -37 c6 0 10 -4 10 -10 0 -5 -4 -10 -10 -10
-5 0 -10 5 -10 10 0 6 5 10 10 10z m754 -42 c75 2 88 1 83 -12 -4 -9 -2 -18 3
-21 6 -4 10 -10 10 -16 0 -5 -7 -9 -15 -9 -8 0 -15 6 -15 14 0 8 -7 17 -15 20
-9 3 -57 4 -108 1 -51 -2 -150 -7 -221 -10 -71 -3 -156 -13 -188 -21 -33 -9
-62 -13 -66 -10 -3 3 -3 8 0 11 3 3 32 12 64 21 33 8 131 18 219 22 88 4 200
9 249 10z m144 -5 c26 -2 81 -11 122 -19 41 -8 108 -25 148 -36 39 -12 72 -24
72 -28 0 -4 -12 -13 -26 -20 -22 -12 -37 -12 -107 4 -45 9 -118 24 -161 31
-43 8 -81 17 -84 20 -3 3 -2 8 1 12 4 3 68 -6 142 -21 74 -14 143 -29 152 -33
13 -4 15 -3 8 5 -6 6 -46 21 -90 32 -44 11 -113 23 -152 27 -48 4 -73 10 -73
18 0 9 14 11 48 8z m3173 -13 c6 0 9 -23 8 -58 -1 -32 3 -67 9 -79 7 -12 12
-26 12 -32 0 -6 -5 -11 -11 -11 -5 0 -16 15 -23 33 -8 17 -12 50 -11 72 2 22
3 48 4 58 1 9 6 17 12 17z m-1161 -20 c33 0 60 -4 60 -10 0 -6 -27 -10 -60
-10 -33 0 -60 4 -60 10 0 6 27 10 60 10z m380 -10 c6 0 10 -4 10 -10 0 -5 -5
-21 -12 -35 -6 -14 -15 -25 -20 -25 -4 0 -8 7 -8 16 0 8 5 24 10 35 6 10 15
19 20 19z m-550 -21 c69 0 186 -6 260 -14 74 -7 149 -18 166 -23 17 -6 42 -17
55 -25 13 -9 59 -25 102 -37 43 -12 102 -32 131 -45 30 -13 71 -39 92 -57 21
-18 48 -33 62 -33 14 0 30 -8 36 -17 8 -14 6 -26 -8 -52 -10 -19 -15 -39 -12
-45 4 -6 23 -11 43 -11 20 0 45 -8 55 -17 14 -13 21 -14 30 -5 7 7 16 12 21
12 5 0 6 -7 3 -15 -4 -11 3 -19 19 -25 14 -5 25 -16 25 -25 0 -8 5 -15 10 -15
6 0 10 -9 10 -20 0 -11 4 -20 9 -20 6 0 7 17 4 38 -3 24 -17 48 -38 68 -18 17
-36 41 -40 53 -4 12 -4 26 0 29 4 4 10 0 13 -8 3 -8 22 -31 43 -50 33 -32 38
-43 45 -100 4 -36 13 -78 20 -95 7 -18 9 -46 5 -69 -3 -22 -11 -41 -17 -43 -8
-3 -11 15 -10 53 1 41 -3 58 -13 62 -11 4 -12 -1 -7 -19 4 -13 8 -30 9 -38 1
-8 -3 -16 -10 -18 -6 -2 -14 10 -18 29 -4 18 -15 38 -24 45 -14 10 -14 16 -4
43 10 27 9 36 -3 55 -8 13 -23 27 -32 30 -9 4 -37 7 -62 6 -25 -1 -53 -4 -62
-7 -12 -4 -18 -15 -18 -37 0 -18 -7 -66 -15 -107 -8 -41 -25 -111 -36 -155
-12 -44 -34 -108 -51 -143 -16 -35 -36 -66 -44 -69 -8 -3 -14 -11 -14 -17 0
-7 -15 -26 -33 -44 -18 -17 -60 -43 -94 -57 -34 -13 -104 -32 -155 -40 -51 -8
-174 -18 -273 -21 -145 -5 -202 -3 -290 10 -60 10 -149 31 -197 47 -48 15
-110 40 -136 53 -27 14 -75 48 -106 77 -48 43 -66 72 -120 183 -47 95 -66 147
-71 191 -4 33 -8 71 -10 85 -1 14 -6 55 -10 93 -4 37 -8 67 -9 68 0 0 -48 4
-106 9 -58 5 -139 12 -180 15 -41 3 -94 8 -117 11 -24 3 -43 9 -43 14 0 6 40
7 93 4 50 -3 106 -7 122 -10 17 -2 77 -8 135 -13 57 -5 108 -8 111 -5 4 2 10
19 13 39 5 23 18 43 39 59 18 14 66 38 108 55 42 17 101 37 131 45 31 8 99 20
152 26 53 7 96 16 96 21 0 5 5 9 11 9 6 0 17 -7 26 -15 8 -9 13 -18 10 -21 -3
-4 -18 -6 -34 -6 -15 0 -76 -7 -135 -14 -58 -8 -130 -23 -160 -33 -29 -10 -83
-32 -119 -49 -36 -16 -75 -42 -87 -57 -12 -15 -22 -35 -22 -44 0 -10 -5 -22
-12 -29 -9 -9 -9 -30 0 -89 6 -43 14 -109 17 -148 6 -58 17 -90 63 -185 44
-88 71 -129 117 -176 35 -36 87 -75 122 -93 34 -17 95 -42 135 -55 40 -13 123
-32 183 -42 88 -13 144 -15 281 -10 94 3 210 13 259 21 48 7 109 22 136 31 27
10 49 22 49 27 0 5 -7 6 -15 3 -9 -3 -39 -12 -68 -21 -29 -8 -110 -22 -182
-30 -71 -8 -186 -15 -255 -15 -69 0 -154 5 -190 10 -36 6 -98 22 -137 36 -40
14 -73 30 -73 36 0 6 13 7 32 3 18 -4 51 -15 74 -25 22 -10 73 -23 112 -29 39
-6 122 -11 184 -11 62 0 172 7 243 15 72 8 155 22 185 31 30 9 67 27 82 41 21
20 26 32 21 54 -3 17 -1 29 5 29 5 0 12 -10 15 -22 5 -18 8 -19 22 -8 8 7 18
10 22 6 4 -3 -10 -24 -31 -45 -21 -21 -34 -41 -28 -45 5 -3 27 14 48 37 22 23
49 56 61 73 12 17 28 48 37 68 8 20 24 71 35 114 12 42 28 111 36 152 8 41 15
91 15 111 0 24 5 39 16 43 9 3 27 6 40 6 13 0 24 5 24 10 0 6 -15 10 -32 10
-18 0 -38 4 -44 8 -6 4 -14 16 -18 28 -4 14 1 30 13 46 11 14 17 28 14 32 -3
3 -16 6 -29 6 -12 0 -44 18 -70 40 -27 23 -68 49 -91 60 -23 10 -77 28 -119
40 -42 11 -101 32 -131 46 -41 20 -85 29 -191 40 -75 7 -184 13 -242 13 -82
-1 -96 -3 -65 -9 22 -5 99 -9 170 -11 102 -1 138 -6 166 -20 20 -10 78 -29
130 -42 52 -14 131 -36 176 -50 45 -13 105 -38 134 -54 29 -16 58 -37 63 -46
6 -9 7 -19 4 -23 -4 -3 -22 5 -40 19 -18 14 -52 34 -76 46 -24 12 -82 34 -130
48 -48 14 -120 34 -161 45 -41 11 -92 28 -114 39 -21 11 -44 18 -51 16 -7 -3
-86 -1 -177 4 -90 5 -165 14 -167 19 -2 6 -10 10 -18 10 -8 0 -14 4 -14 9 0 5
8 12 18 14 9 3 73 5 142 6z m-1475 -69 c2 0 17 -6 32 -12 15 -7 51 -27 80 -45
28 -18 60 -44 72 -59 11 -14 23 -35 27 -47 4 -12 11 -25 16 -28 6 -4 6 -13 0
-25 -6 -11 -15 -50 -21 -89 -5 -38 -17 -107 -26 -152 -12 -63 -26 -100 -60
-155 -25 -40 -45 -77 -45 -83 0 -6 -27 -40 -59 -76 -37 -41 -82 -77 -120 -98
-34 -18 -104 -43 -157 -57 -84 -21 -119 -24 -266 -24 -102 0 -213 6 -277 16
-58 8 -140 22 -181 30 -41 9 -106 27 -145 40 -38 13 -88 37 -109 52 -28 19
-52 51 -83 110 -24 45 -43 96 -43 113 0 17 6 32 15 35 8 4 31 3 50 0 19 -4 47
-18 62 -31 16 -13 25 -26 22 -30 -4 -3 -30 6 -57 22 -42 23 -53 26 -64 15 -11
-11 -5 -28 32 -99 34 -65 56 -94 89 -118 24 -18 74 -42 110 -54 36 -12 98 -28
136 -36 39 -7 118 -21 176 -29 62 -9 174 -16 267 -16 135 0 174 4 253 24 55
14 119 39 156 60 34 20 84 62 112 93 28 31 73 95 100 142 38 65 53 105 65 166
8 44 19 98 25 120 5 22 10 58 11 80 1 22 2 47 1 56 -1 8 -17 34 -36 56 -19 23
-64 58 -100 78 -36 20 -65 40 -65 45 0 6 2 10 5 10z m1510 0 c50 0 85 -4 85
-10 0 -6 -35 -10 -85 -10 -50 0 -85 4 -85 10 0 6 35 10 85 10z m-3627 -70 c6
0 13 -11 16 -24 4 -16 15 -25 36 -29 21 -5 30 -12 30 -25 0 -11 -9 -31 -20
-45 -11 -14 -20 -33 -20 -43 0 -10 18 -44 40 -76 35 -49 42 -68 50 -135 6 -43
13 -105 16 -139 6 -52 11 -63 35 -80 27 -18 28 -21 26 -100 -1 -55 2 -86 11
-97 7 -8 15 -43 17 -77 2 -34 9 -67 14 -74 5 -6 19 -64 30 -127 10 -64 36
-164 57 -223 l38 -106 22 97 c13 54 23 108 23 119 1 12 7 27 15 33 11 10 20
10 36 1 19 -10 21 -18 17 -63 -3 -29 -16 -90 -29 -137 -14 -47 -28 -95 -32
-107 -5 -14 -3 -23 3 -23 6 0 27 18 47 40 20 22 43 40 50 40 8 0 14 -4 14 -9
0 -6 -5 -13 -10 -16 -7 -4 -6 -13 1 -27 6 -11 9 -32 6 -47 -3 -14 -1 -34 4
-44 6 -10 7 -27 4 -37 -4 -11 -11 -20 -17 -20 -6 0 -8 8 -5 19 2 10 0 26 -5
35 -5 9 -16 16 -23 16 -8 0 -15 4 -15 9 0 5 9 13 20 16 11 3 20 12 20 18 0 7
-4 18 -9 25 -6 10 -14 6 -34 -18 -15 -17 -30 -29 -34 -27 -5 3 -9 -46 -10
-108 -2 -80 1 -125 12 -155 8 -23 15 -64 15 -91 0 -30 -6 -53 -16 -63 -8 -9
-24 -16 -35 -16 -11 0 -21 6 -23 13 -2 6 -9 41 -16 77 -7 36 -15 92 -17 124
-1 33 1 85 6 118 8 45 7 66 -5 93 -10 26 -12 45 -5 75 5 22 5 42 1 45 -5 3
-22 47 -39 98 -18 52 -40 144 -51 206 -11 62 -24 118 -29 125 -6 6 -13 42 -17
79 -4 37 -10 70 -15 73 -4 2 -11 31 -15 64 -4 33 -11 60 -15 60 -5 0 -9 5 -9
11 0 6 7 9 15 5 10 -4 15 1 15 16 0 11 -11 31 -25 44 -17 15 -25 19 -25 9 0
-7 9 -17 20 -20 11 -3 20 -11 20 -17 0 -6 -10 -8 -22 -4 -13 3 -26 6 -30 6 -3
0 -6 35 -5 78 1 42 -4 117 -11 165 -8 62 -18 97 -34 120 -12 17 -31 40 -40 49
-11 11 -18 33 -18 57 0 24 8 48 21 65 19 25 20 26 2 32 -10 3 -25 9 -33 13 -8
5 -16 20 -18 35 -2 14 1 26 6 26z m4080 -25 c8 -3 18 -5 23 -5 5 0 9 -4 9 -10
0 -5 -7 -10 -15 -10 -8 0 -15 -3 -15 -7 0 -5 -9 -50 -20 -102 -11 -52 -20
-113 -20 -136 0 -33 5 -46 23 -58 12 -8 19 -18 14 -23 -4 -4 -20 1 -35 13 -23
17 -26 26 -25 69 1 27 12 100 25 162 17 84 26 111 36 107z m954 5 c7 0 8 -14
5 -36 -3 -20 -13 -47 -22 -61 -9 -13 -23 -27 -31 -30 -8 -3 -18 -3 -21 1 -3 3
6 18 20 32 15 14 29 41 33 60 3 19 11 34 16 34z m-3684 -20 c6 0 12 -6 12 -14
0 -8 -15 -15 -39 -19 -22 -3 -78 -23 -126 -46 -48 -23 -89 -41 -91 -41 -2 0
-4 6 -4 13 0 7 21 24 48 37 26 12 79 33 117 46 39 13 76 23 83 24z m272 -25
c19 -4 55 -8 80 -10 25 -1 74 -9 110 -18 36 -8 83 -15 105 -15 23 1 50 -2 60
-6 11 -4 35 -25 53 -48 18 -22 35 -52 39 -66 3 -13 2 -40 -3 -59 -6 -25 -20
-40 -47 -56 -33 -18 -39 -19 -47 -7 -5 8 -10 18 -10 21 0 4 16 10 35 13 24 5
39 15 47 31 6 13 8 34 4 47 -3 13 -24 42 -45 66 -29 30 -48 42 -69 42 -28 0
-29 -1 -25 -46 3 -29 -2 -61 -14 -90 -10 -24 -21 -44 -25 -44 -5 0 -8 7 -8 15
0 9 7 29 15 46 9 17 14 44 11 67 -3 20 -5 40 -5 44 -1 3 -34 14 -73 23 -40 10
-90 17 -110 16 -20 0 -49 4 -65 10 -21 8 -34 6 -60 -8 -29 -16 -35 -16 -43 -3
-7 12 -15 12 -42 3 -18 -6 -51 -14 -73 -18 -22 -4 -44 -10 -50 -15 -5 -5 -39
-16 -73 -25 -35 -9 -86 -25 -112 -35 -26 -10 -56 -19 -66 -19 -11 1 -29 -2
-41 -6 -13 -4 -23 -3 -23 1 0 5 4 14 8 20 4 6 21 11 37 10 17 -1 53 7 80 17
28 11 75 26 105 33 30 8 62 22 72 31 10 9 21 14 24 11 3 -3 33 0 66 8 33 8 76
13 94 12 18 -1 37 2 41 6 4 4 24 5 43 1z m-1590 -15 c6 0 10 -4 10 -10 0 -5
-4 -10 -10 -10 -5 0 -10 5 -10 10 0 6 5 10 10 10z m3678 -50 c11 0 27 -9 37
-20 10 -11 24 -20 32 -20 7 0 13 -4 13 -9 0 -5 13 -14 28 -20 16 -7 49 -32 73
-57 24 -24 51 -44 61 -44 10 0 18 -3 18 -7 0 -5 -4 -14 -9 -22 -7 -11 -17 -8
-50 18 -23 18 -41 36 -41 41 0 4 -32 30 -71 57 -40 26 -80 52 -90 58 -11 5
-19 13 -19 17 0 5 8 8 18 8z m1315 -2 c6 -3 17 -24 24 -49 6 -24 9 -63 6 -85
-3 -30 0 -49 12 -68 10 -15 14 -30 10 -34 -3 -4 -15 4 -26 17 -14 18 -19 38
-18 85 1 33 -4 74 -10 89 -6 16 -11 33 -11 38 0 6 6 9 13 7z m-1427 -12 c46
-1 84 -6 92 -13 6 -6 12 -19 12 -27 0 -9 -3 -16 -6 -16 -4 0 -12 7 -18 16 -9
12 -30 16 -86 16 -45 0 -76 -5 -78 -11 -2 -6 -23 -11 -46 -11 -36 0 -45 -4
-54 -24 -6 -13 -14 -40 -17 -60 -5 -24 -1 -52 11 -86 13 -37 23 -50 38 -51 12
-1 35 -2 51 -3 17 0 59 -15 95 -33 49 -23 85 -33 145 -38 43 -3 83 -9 87 -11
4 -3 8 -10 8 -15 0 -6 -8 -8 -17 -5 -10 3 -51 8 -92 11 -53 4 -92 14 -138 36
-41 21 -72 30 -90 26 -15 -3 -36 0 -47 7 -12 6 -29 20 -38 30 -10 11 -23 37
-30 59 -9 30 -9 52 0 94 6 30 17 61 23 69 6 8 29 14 51 14 22 0 45 6 53 13 9
9 39 13 91 13z m-2075 -12 c19 -4 39 -13 45 -20 6 -8 14 -32 18 -53 4 -26 18
-50 43 -74 l37 -36 90 4 c50 2 102 7 115 11 18 5 23 4 19 -7 -2 -7 -24 -17
-49 -21 -24 -5 -69 -10 -99 -12 -32 -2 -68 1 -86 9 -17 7 -43 28 -58 47 -14
19 -29 50 -32 69 -4 19 -11 40 -17 47 -5 6 -19 12 -31 12 -12 0 -39 -18 -61
-40 -21 -22 -43 -40 -47 -40 -4 0 -8 5 -8 10 0 6 20 31 44 55 39 40 47 44 77
39z m-1411 -24 c6 0 10 -4 10 -10 0 -5 -4 -10 -10 -10 -5 0 -10 5 -10 10 0 6
5 10 10 10z m2461 -5 c92 -3 180 -10 198 -16 26 -9 31 -16 31 -45 0 -19 -4
-34 -10 -34 -5 0 -10 9 -10 20 0 11 -10 26 -22 34 -16 11 -68 17 -179 22 -108
5 -161 3 -176 -4 -14 -8 -22 -24 -26 -49 -2 -21 -14 -83 -27 -138 -12 -55 -26
-107 -31 -115 -4 -8 -24 -43 -44 -77 -20 -35 -40 -63 -45 -63 -6 0 -10 5 -10
12 0 6 20 45 44 87 31 54 50 105 67 176 13 55 24 109 24 120 1 11 5 30 9 42 4
12 15 24 24 27 9 3 92 3 183 1z m622 5 c4 0 7 -4 7 -9 0 -5 -18 -27 -41 -49
-28 -29 -40 -48 -37 -64 2 -16 17 -30 48 -44 24 -12 49 -20 55 -18 5 2 16 -5
23 -17 7 -11 11 -23 9 -26 -3 -2 -25 5 -50 16 -25 12 -51 21 -58 21 -7 0 -21
7 -31 17 -10 9 -18 29 -18 45 0 16 5 39 11 51 6 12 25 34 43 49 17 15 34 28
39 28z m-3093 -30 c6 0 10 -4 10 -10 0 -5 -4 -10 -10 -10 -5 0 -10 5 -10 10 0
6 5 10 10 10z m445 -20 c8 0 15 -4 15 -10 0 -5 -7 -10 -15 -10 -8 0 -15 5 -15
10 0 6 7 10 15 10z m893 -20 c5 0 17 -7 28 -15 10 -8 26 -15 34 -15 8 0 25 -9
38 -19 12 -11 22 -22 22 -25 0 -3 -6 -6 -14 -6 -7 0 -19 7 -26 15 -7 8 -22 15
-34 15 -11 0 -29 7 -38 14 -10 7 -18 18 -18 25 0 6 4 11 8 11z m2303 0 c5 0 9
-2 9 -4 0 -2 -12 -28 -27 -58 -15 -29 -26 -59 -24 -67 1 -7 -4 -11 -11 -9 -7
3 -14 17 -16 31 -2 18 2 29 12 33 9 3 16 11 16 18 0 6 7 22 16 34 8 12 19 22
25 22z m32 -13 c6 -2 19 -15 30 -29 11 -15 17 -33 13 -44 -3 -11 -15 -25 -27
-32 -18 -12 -23 -12 -30 0 -5 7 -9 16 -9 21 0 4 9 7 19 7 11 0 23 5 27 11 3 6
0 15 -7 20 -8 5 -20 13 -28 18 -8 5 -11 14 -6 20 4 7 12 10 18 8z m756 -127
c17 0 31 -6 35 -15 3 -9 21 -25 41 -36 27 -16 38 -31 46 -65 6 -24 15 -44 21
-44 5 0 7 -32 6 -72 -2 -43 -8 -73 -15 -75 -8 -3 -10 15 -7 66 3 46 1 71 -5
71 -6 0 -14 18 -17 40 -6 34 -12 43 -39 54 -18 8 -40 24 -49 37 -10 15 -19 20
-25 14 -6 -6 -15 -44 -22 -85 -6 -41 -19 -99 -30 -130 -10 -30 -28 -80 -41
-111 -13 -30 -38 -74 -57 -97 l-33 -42 31 -27 c17 -15 31 -33 31 -40 0 -7 -3
-13 -7 -13 -4 0 -17 10 -30 22 -13 12 -23 27 -23 35 0 7 -2 13 -5 13 -2 0 -21
-12 -42 -26 -21 -14 -59 -37 -85 -50 -26 -13 -56 -24 -68 -24 -11 0 -20 3 -20
8 0 4 19 15 43 25 24 9 68 34 99 55 31 20 72 58 92 85 20 26 36 50 36 53 0 3
16 42 35 86 21 47 42 117 51 171 8 51 17 98 19 105 2 6 18 12 34 12z m-3599
-20 c6 0 10 -4 10 -10 0 -5 -4 -10 -10 -10 -5 0 -10 5 -10 10 0 6 5 10 10 10z
m1671 -41 c4 0 14 -14 23 -33 9 -19 16 -37 16 -40 0 -3 -8 -15 -17 -26 -10
-11 -30 -20 -45 -20 -18 0 -28 5 -28 15 0 9 -7 18 -15 21 -8 4 -15 14 -15 24
0 9 8 24 18 32 9 9 26 18 37 21 11 2 23 5 26 6z m1969 -19 c6 0 10 -8 10 -18
0 -10 7 -27 15 -38 8 -11 14 -42 15 -76 0 -48 -3 -58 -20 -63 -11 -3 -27 -13
-35 -21 -8 -9 -19 -12 -25 -9 -5 3 -10 11 -10 16 0 6 16 17 35 25 30 12 35 19
35 48 0 19 -7 47 -15 62 -8 16 -15 39 -15 52 0 12 5 22 10 22z m-3912 -21 c24
1 52 -3 62 -9 11 -6 21 -27 25 -52 4 -24 16 -61 27 -83 11 -22 42 -63 69 -92
l48 -51 -6 -69 c-4 -49 -13 -81 -33 -113 -17 -30 -37 -48 -56 -53 -16 -5 -44
-13 -62 -19 -23 -7 -37 -6 -47 2 -11 9 -18 7 -34 -9 -12 -12 -21 -29 -21 -39
0 -10 9 -56 19 -103 11 -46 29 -118 40 -159 11 -41 21 -95 21 -119 0 -25 11
-101 24 -170 14 -69 32 -179 40 -245 14 -105 14 -120 0 -133 -9 -9 -13 -26
-10 -42 2 -14 12 -71 21 -126 9 -55 22 -122 29 -150 8 -27 12 -68 9 -90 -3
-28 7 -77 32 -159 20 -66 44 -131 54 -145 10 -14 22 -54 26 -89 5 -46 14 -70
31 -89 13 -14 24 -30 24 -34 0 -5 -2 -9 -4 -9 -2 0 -11 -2 -19 -5 -9 -4 -19 7
-30 37 -9 24 -19 68 -23 98 -4 31 -15 63 -26 74 -10 11 -18 26 -18 33 0 7 -4
21 -9 31 -5 9 -21 60 -35 113 -15 56 -26 120 -25 150 1 30 -4 66 -9 81 -6 14
-13 46 -16 70 -3 23 -10 68 -16 98 -6 30 -13 72 -16 93 -3 20 0 54 6 76 7 28
6 71 -5 162 -8 68 -23 166 -35 218 -11 52 -20 115 -20 140 0 25 -10 80 -21
121 -11 41 -29 113 -40 159 -10 47 -19 97 -19 112 0 15 8 37 18 49 15 19 30
24 79 26 34 1 70 7 82 14 12 6 32 28 46 49 17 27 25 56 26 95 2 55 1 58 -43
104 -25 26 -55 67 -65 92 -11 25 -23 62 -27 82 -3 20 -13 42 -21 48 -10 9 -32
11 -67 7 -32 -4 -60 -14 -72 -26 -16 -17 -21 -41 -28 -143 -5 -68 -6 -179 -3
-248 4 -69 13 -190 21 -270 8 -80 19 -174 24 -210 6 -36 17 -123 25 -195 9
-71 22 -161 30 -200 8 -38 19 -113 25 -166 5 -53 24 -159 41 -235 17 -77 44
-188 61 -249 17 -60 32 -119 35 -130 3 -11 11 -34 19 -52 8 -17 14 -42 14 -55
0 -12 7 -36 15 -52 8 -15 15 -37 15 -47 0 -11 -3 -19 -7 -19 -5 0 -16 16 -25
36 -10 19 -18 46 -18 59 0 13 -5 36 -11 52 -6 15 -17 51 -25 78 -8 28 -32 120
-53 205 -22 85 -48 194 -57 242 -17 84 -19 87 -38 74 -11 -7 -24 -27 -28 -44
-5 -18 -15 -32 -22 -32 -8 0 -16 -5 -18 -11 -3 -9 -10 -9 -26 0 -12 6 -30 26
-39 44 -10 18 -23 49 -29 69 -6 20 -9 48 -6 63 4 23 9 26 40 23 33 -3 37 -7
43 -38 5 -20 3 -40 -3 -47 -6 -7 -14 -13 -19 -13 -4 0 -5 16 -2 35 5 31 3 35
-17 35 -20 0 -22 -4 -17 -36 4 -20 18 -54 32 -76 22 -33 28 -37 45 -28 11 6
20 21 20 33 0 12 7 30 14 40 8 10 20 15 30 11 13 -5 16 1 16 39 0 25 -3 53 -6
61 -5 13 -9 14 -20 5 -8 -6 -14 -20 -14 -30 0 -10 -5 -30 -12 -44 -6 -14 -16
-25 -21 -25 -5 0 -6 12 -3 28 4 15 8 36 9 48 1 11 8 28 16 37 7 10 20 17 27
17 8 0 14 6 14 13 0 6 -4 28 -10 46 -5 19 -19 107 -30 195 -11 89 -24 190 -30
226 -5 36 -17 133 -27 215 -11 101 -16 231 -16 397 0 212 3 251 17 272 9 14
31 30 49 35 17 5 51 10 75 10z m266 -39 c8 0 21 -3 30 -6 9 -3 16 -12 16 -20
0 -8 -2 -14 -5 -14 -2 0 -16 5 -30 12 -14 6 -25 15 -25 20 0 4 6 8 14 8z m-55
-20 c6 0 13 -12 16 -27 4 -16 9 -39 11 -52 3 -14 20 -37 37 -53 18 -16 46 -36
62 -45 17 -9 50 -20 75 -25 25 -5 77 -13 115 -18 39 -5 84 -14 100 -19 17 -6
56 -12 88 -13 34 -1 56 -6 54 -13 -2 -6 -30 -9 -68 -6 -35 2 -71 7 -79 11 -9
5 -51 11 -93 14 -43 3 -86 10 -97 16 -11 6 -25 8 -30 5 -5 -3 -31 3 -57 15
-27 12 -65 37 -85 57 -20 20 -40 50 -43 67 -3 17 -8 43 -11 59 -3 16 -1 27 5
27z m1529 -1 c6 1 12 -2 12 -7 0 -4 -13 -23 -28 -42 -16 -19 -39 -59 -52 -87
-13 -29 -27 -53 -32 -53 -4 0 -8 4 -8 10 0 5 11 35 25 65 13 31 35 69 47 85
13 16 29 29 36 29z m-1933 -19 c8 0 15 -4 15 -9 0 -5 -5 -11 -12 -13 -10 -4
-10 -13 -1 -43 7 -22 11 -41 8 -43 -2 -2 -8 -1 -14 2 -6 4 -13 22 -17 41 -3
19 -4 42 0 50 3 8 12 15 21 15z m2135 -70 c16 0 48 -10 70 -21 23 -12 48 -32
56 -44 8 -13 29 -29 46 -36 17 -7 63 -52 107 -105 42 -51 88 -115 103 -141 14
-26 34 -64 44 -83 9 -19 24 -48 32 -65 8 -16 20 -35 27 -40 7 -6 15 -20 19
-33 6 -16 3 -22 -8 -22 -9 0 -16 7 -16 15 0 7 -6 18 -12 22 -7 4 -21 23 -30
41 -10 19 -18 41 -19 50 0 11 -2 12 -6 5 -2 -7 -11 -13 -18 -13 -7 0 -16 7
-19 16 -4 9 -1 23 5 30 9 11 4 26 -22 66 -19 29 -67 93 -107 141 -42 50 -86
93 -101 98 -15 6 -38 23 -50 39 -12 17 -28 30 -35 30 -7 0 -19 7 -26 15 -7 8
-21 15 -30 15 -10 0 -27 -11 -38 -25 -11 -14 -30 -25 -44 -25 -13 0 -35 -8
-48 -17 -14 -9 -47 -36 -73 -61 -27 -24 -85 -85 -131 -136 -45 -50 -88 -102
-95 -114 -7 -13 -18 -40 -26 -62 -11 -31 -11 -39 -1 -43 7 -3 32 20 56 51 27
34 39 57 32 60 -7 2 -12 10 -12 18 0 8 5 14 10 14 6 0 10 -7 10 -15 0 -8 4
-15 9 -15 5 0 14 7 21 15 7 8 18 15 25 15 8 0 15 -4 17 -9 2 -5 10 -10 18 -11
8 -1 26 -2 40 -1 20 1 22 3 10 11 -8 5 -11 12 -7 16 4 4 18 2 32 -4 14 -7 45
-12 68 -12 24 0 48 5 55 12 6 6 38 11 70 11 33 -1 68 -5 78 -11 11 -5 48 -12
84 -15 36 -3 84 -9 106 -12 27 -5 44 -3 48 4 4 6 11 11 17 11 5 0 9 -7 9 -15
0 -8 -5 -15 -11 -15 -6 0 -8 -9 -4 -21 4 -12 3 -19 -1 -17 -5 2 -25 11 -44 20
-19 9 -75 19 -124 22 -50 3 -92 10 -96 16 -3 5 -30 8 -60 6 -30 -1 -63 -6 -72
-10 -10 -4 -42 -6 -73 -4 -30 1 -56 -1 -58 -7 -2 -5 -29 -9 -60 -8 -56 1 -57
1 -102 -50 -25 -29 -53 -73 -63 -99 -9 -27 -20 -48 -23 -48 -4 0 -10 7 -13 15
-3 9 0 25 7 36 10 16 9 21 -3 29 -11 7 -18 3 -26 -17 -7 -17 -8 -38 -3 -57 5
-18 5 -34 -1 -40 -5 -5 -13 -7 -16 -3 -4 3 -8 23 -10 44 -1 22 7 59 20 92 13
31 29 74 36 95 7 23 39 68 74 106 34 36 75 81 93 100 18 19 51 53 74 75 24 22
54 48 68 57 14 10 38 18 52 18 17 0 32 9 43 25 11 17 26 25 46 25z m-2460 -20
c6 0 10 -4 10 -10 0 -5 -4 -10 -10 -10 -5 0 -10 5 -10 10 0 6 5 10 10 10z
m4059 0 c6 0 14 -12 17 -26 4 -14 3 -39 -2 -56 -5 -17 -16 -34 -23 -36 -10 -3
-12 0 -8 12 4 9 1 17 -6 17 -7 1 -18 1 -24 0 -7 -1 -13 3 -13 8 0 5 -9 13 -20
16 -11 3 -20 10 -20 14 0 5 21 9 46 9 37 1 45 -2 40 -14 -3 -9 -2 -12 5 -9 6
4 7 19 4 36 -4 18 -2 29 4 29z m157 0 c8 0 14 -4 14 -9 0 -5 -7 -12 -16 -15
-9 -4 -19 -4 -21 -2 -3 3 -2 9 2 15 3 6 13 11 21 11z m-3886 -40 c11 0 20 -2
20 -5 0 -2 -11 -15 -25 -29 -14 -14 -25 -32 -25 -41 0 -8 -4 -15 -10 -15 -5 0
-10 7 -10 15 0 9 7 29 15 45 9 18 24 30 35 30z m3993 0 c7 0 18 -5 25 -12 7
-7 12 -20 12 -31 0 -16 5 -18 33 -12 17 4 37 11 42 15 6 4 22 10 36 14 19 4
34 0 50 -13 24 -19 24 -19 25 -268 0 -136 5 -304 9 -373 5 -69 9 -145 9 -170
1 -42 3 -46 36 -55 19 -5 51 -26 71 -45 34 -32 38 -34 48 -18 6 10 11 24 11
32 0 7 7 20 16 27 9 7 29 42 45 77 16 35 42 103 58 151 l28 88 -19 47 c-10 26
-28 60 -40 76 -20 27 -27 30 -80 30 -32 0 -58 4 -58 10 0 6 28 10 65 10 57 0
68 -3 87 -25 12 -14 33 -53 45 -87 l23 -61 -27 -86 c-14 -47 -37 -109 -50
-138 -13 -28 -23 -56 -23 -62 0 -5 -10 -22 -23 -38 -12 -15 -28 -41 -35 -56
-7 -15 -12 -36 -12 -45 1 -12 9 -7 31 18 16 19 47 64 68 100 21 36 50 94 63
130 14 36 33 85 42 110 9 27 16 76 16 119 0 44 -7 93 -17 123 -10 28 -32 67
-50 87 -26 29 -32 32 -33 17 0 -11 8 -29 18 -40 10 -12 24 -40 30 -62 7 -23
12 -53 12 -68 0 -14 -4 -26 -10 -26 -5 0 -10 11 -10 24 0 12 -5 38 -12 57 -6
19 -19 45 -29 59 -10 14 -19 39 -21 55 -2 25 1 31 20 33 16 3 33 -7 55 -31 19
-20 39 -58 50 -93 11 -36 17 -91 17 -142 0 -73 -5 -95 -46 -205 -26 -67 -57
-136 -70 -154 -13 -17 -24 -36 -24 -40 0 -5 -14 -28 -31 -51 -17 -23 -37 -42
-44 -42 -9 0 -16 -19 -20 -57 -4 -32 -13 -74 -20 -94 -8 -20 -11 -53 -8 -76 4
-31 -1 -52 -25 -99 -17 -32 -40 -69 -51 -81 -17 -18 -21 -35 -21 -88 0 -36 -7
-81 -14 -100 -12 -27 -21 -35 -41 -35 -14 0 -34 -8 -45 -17 -12 -12 -21 -42
-28 -93 -6 -41 -20 -103 -33 -137 -13 -35 -27 -63 -31 -63 -4 0 -8 5 -8 12 0
6 5 28 11 47 6 20 17 47 24 61 7 14 16 60 20 104 6 65 10 79 26 83 11 3 22 17
26 32 4 14 7 48 7 74 1 38 -4 52 -19 63 -19 14 -20 26 -20 206 0 144 -3 192
-12 195 -7 3 -13 19 -13 37 0 18 -5 37 -10 42 -6 6 -8 18 -4 27 3 9 10 17 15
17 4 0 11 -22 15 -50 4 -27 10 -50 14 -50 4 0 12 -23 18 -52 5 -29 7 -61 3
-73 -3 -11 -6 -76 -6 -145 0 -118 1 -126 23 -148 20 -20 23 -32 20 -79 -2 -34
1 -58 8 -60 6 -2 16 8 22 22 7 14 12 55 12 91 0 58 4 70 38 122 21 31 43 68
48 82 6 14 9 41 7 60 -2 19 3 55 11 80 8 25 17 65 20 90 5 33 2 51 -8 65 -15
19 -15 19 -16 -10 0 -16 -7 -39 -15 -49 -8 -11 -15 -30 -15 -42 0 -12 -7 -38
-16 -59 -14 -33 -14 -39 0 -61 9 -13 16 -26 16 -29 0 -3 -6 -5 -13 -5 -7 0
-21 15 -30 33 -18 33 -18 35 2 71 12 20 21 46 21 57 0 11 5 30 12 42 6 12 13
31 14 42 1 11 4 26 6 33 1 8 -13 27 -33 44 -24 20 -45 28 -62 26 l-26 -3 20
-43 c19 -40 19 -45 5 -61 -9 -10 -16 -25 -16 -35 0 -9 5 -26 11 -38 6 -11 8
-22 5 -26 -4 -3 -14 1 -22 10 -9 9 -16 32 -17 52 -1 21 5 41 11 45 10 6 10 15
2 36 -6 16 -18 35 -28 42 -9 8 -12 16 -7 19 6 2 15 8 20 12 7 5 8 57 2 157 -4
83 -9 270 -10 417 -2 202 -6 270 -16 282 -8 9 -24 16 -37 16 -12 0 -26 -4 -29
-10 -3 -5 -28 -12 -55 -16 -27 -4 -55 -13 -61 -20 -6 -8 -18 -14 -25 -14 -8 0
-14 4 -14 8 0 5 11 15 25 22 14 7 25 19 25 25 0 7 -7 18 -15 25 -8 7 -15 16
-15 21 0 5 6 9 13 9z m77 -10 c6 0 10 -4 10 -10 0 -5 -4 -10 -10 -10 -5 0 -10
5 -10 10 0 6 5 10 10 10z m-4211 -40 c6 0 11 -9 11 -19 0 -10 7 -22 16 -25 9
-3 23 -6 33 -6 9 0 23 -14 31 -32 7 -18 13 -41 12 -51 -1 -10 -8 -25 -16 -33
-8 -8 -22 -14 -30 -14 -9 0 -16 4 -16 9 0 5 -7 12 -17 15 -9 4 -25 -2 -38 -14
-12 -11 -24 -20 -28 -20 -4 0 -7 7 -7 15 0 9 7 18 15 21 8 4 15 12 15 20 0 8
2 14 5 14 3 0 22 -7 42 -15 24 -10 40 -12 46 -6 6 6 6 20 -2 38 -8 19 -23 32
-44 39 -25 7 -33 15 -35 37 -2 15 1 27 7 27z m1782 -21 c4 1 7 -10 7 -24 0
-18 -6 -25 -19 -25 -11 0 -36 -10 -57 -23 -20 -12 -53 -28 -74 -35 -20 -7 -62
-19 -93 -27 -32 -9 -97 -18 -146 -22 -57 -4 -89 -2 -89 4 0 6 38 13 84 17 46
3 113 13 148 22 35 9 83 26 108 39 25 12 64 34 85 48 22 14 43 26 46 26z
m2635 -9 c8 0 14 -5 14 -11 0 -6 7 -17 15 -25 8 -9 15 -24 15 -35 0 -11 9 -37
20 -58 19 -38 20 -38 74 -36 31 1 61 -2 68 -7 10 -6 10 -10 1 -16 -7 -4 -41
-8 -75 -8 -62 1 -63 1 -84 40 -12 21 -25 57 -29 80 l-8 41 -10 -34 c-9 -27 -8
-36 5 -45 8 -6 15 -26 16 -43 0 -18 10 -72 21 -120 12 -49 26 -108 31 -132 6
-24 8 -46 4 -50 -4 -3 -9 0 -11 7 -3 7 -15 22 -26 33 -17 16 -19 22 -8 28 9 6
11 16 6 32 -5 13 -9 34 -11 47 -1 12 -8 46 -14 75 -7 29 -19 71 -27 95 -10 29
-13 58 -8 92 5 33 12 50 21 50z m-3818 -30 c4 0 34 -9 67 -19 34 -11 101 -27
150 -35 50 -9 114 -21 143 -27 28 -6 52 -15 52 -21 0 -7 -12 -8 -32 -4 -18 4
-60 11 -93 16 -33 5 -94 16 -135 25 -41 8 -94 22 -117 31 -24 9 -43 20 -43 25
0 5 3 9 8 9z m4112 -20 c6 0 10 -8 10 -17 0 -9 7 -24 15 -33 8 -9 18 -30 21
-47 5 -24 2 -31 -13 -35 -10 -3 -26 -9 -35 -13 -13 -5 -18 -2 -18 9 0 9 8 16
19 16 11 0 23 5 27 11 3 6 -3 24 -15 40 -11 15 -21 37 -21 49 0 11 5 20 10 20z
m-621 -200 c6 0 11 -4 11 -9 0 -5 6 -16 13 -23 8 -7 26 -34 42 -58 15 -25 39
-55 54 -67 20 -17 23 -25 13 -31 -9 -6 -5 -14 17 -31 17 -13 35 -39 42 -58 8
-25 8 -46 0 -78 -6 -24 -11 -62 -11 -84 0 -23 -4 -41 -10 -41 -5 0 -10 21 -10
48 0 26 5 64 10 84 8 27 8 44 -1 60 -6 13 -25 37 -41 55 -17 17 -28 36 -24 41
3 5 -1 16 -10 23 -9 7 -30 33 -47 58 -17 25 -34 48 -38 51 -4 3 -11 18 -14 33
-5 17 -3 27 4 27z m-1453 -10 c9 0 14 -5 12 -12 -2 -6 -10 -14 -16 -16 -7 -2
-12 3 -12 12 0 9 7 16 16 16z m1977 -1 c4 1 7 -6 7 -14 0 -8 -4 -15 -9 -15 -5
0 -23 -3 -40 -6 -18 -4 -31 -2 -31 3 0 6 15 15 33 21 17 5 35 10 40 11z
m-3362 -170 c134 1 136 1 182 -29 26 -16 47 -34 47 -40 0 -5 -2 -10 -5 -10 -2
0 -28 14 -57 31 l-53 31 -145 -4 c-81 -3 -158 -11 -175 -18 -16 -6 -55 -18
-85 -26 -30 -8 -76 -29 -102 -45 -26 -17 -49 -36 -51 -42 -3 -9 -7 -9 -17 0
-10 9 -10 14 1 25 8 8 35 26 61 41 25 15 71 33 102 41 31 8 61 18 66 21 5 3
29 10 52 14 24 5 104 9 179 10z m1867 -20 c25 1 42 -3 42 -10 0 -8 15 -10 48
-5 26 3 78 8 115 11 38 3 77 0 87 -5 10 -5 20 -6 22 -2 2 5 25 6 52 3 27 -3
51 -10 53 -16 2 -6 -24 -10 -65 -10 -37 0 -72 4 -79 8 -6 4 -49 3 -94 -2 -46
-5 -85 -14 -87 -20 -2 -6 -10 -11 -18 -11 -8 0 -14 5 -14 11 0 6 -9 8 -22 4
-17 -6 -20 -4 -14 10 6 16 1 17 -55 11 -34 -4 -70 -12 -80 -19 -10 -6 -21 -8
-25 -4 -4 4 -3 12 4 19 6 6 28 14 49 18 21 4 57 8 81 9z m528 -59 c3 0 18 -12
32 -27 15 -16 43 -42 62 -59 19 -16 42 -43 52 -60 9 -16 16 -52 16 -81 1 -29
-3 -53 -8 -53 -4 0 -11 18 -15 40 -4 21 -4 43 -1 48 3 6 -4 22 -16 37 -16 21
-23 24 -29 13 -7 -11 -11 -10 -19 2 -5 8 -10 22 -10 30 0 9 -16 30 -35 49 -19
18 -35 39 -35 47 0 8 3 14 6 14z m-1636 -16 c25 -3 65 -16 89 -28 24 -11 52
-34 63 -51 10 -16 18 -36 18 -42 0 -7 -4 -13 -10 -13 -5 0 -17 16 -26 35 -9
19 -20 35 -24 35 -5 0 -15 -3 -24 -6 -9 -3 -16 -11 -16 -18 0 -6 -14 -26 -31
-44 -17 -19 -33 -32 -36 -29 -2 3 -2 14 1 24 3 10 20 33 37 51 22 23 28 37 21
44 -6 6 -30 14 -54 19 -37 7 -48 4 -81 -17 l-39 -25 26 -24 c14 -13 26 -27 26
-30 0 -3 -7 -5 -15 -5 -8 0 -20 9 -27 19 -9 16 -14 17 -25 6 -7 -8 -13 -18
-13 -24 0 -6 -4 -11 -10 -11 -5 0 -10 9 -10 20 0 11 5 20 10 20 6 0 10 8 10
18 0 11 8 26 18 35 9 8 31 23 47 31 21 11 43 14 75 10z m495 -5 c11 1 36 -4
56 -9 19 -6 45 -20 57 -32 11 -13 24 -35 27 -50 5 -18 3 -28 -4 -28 -7 0 -9
-9 -5 -25 4 -15 2 -25 -5 -25 -6 0 -14 12 -17 26 -6 22 -8 24 -16 10 -5 -9
-13 -16 -18 -16 -6 0 -10 7 -10 15 0 8 5 15 10 15 6 0 10 7 10 16 0 10 6 14
15 10 8 -3 15 -1 15 3 0 5 -13 20 -30 34 -16 14 -42 28 -58 32 -21 4 -41 -1
-68 -16 -21 -12 -56 -33 -77 -47 -20 -14 -40 -22 -44 -19 -3 4 2 16 13 28 10
12 44 34 74 50 30 15 64 28 75 28z m580 -60 c6 0 19 -6 29 -14 11 -8 17 -17
14 -21 -3 -3 -22 -2 -42 1 -20 4 -36 11 -36 15 0 5 6 11 13 13 6 3 17 6 22 6z
m-645 -19 c6 0 15 -11 20 -24 6 -18 20 -27 45 -32 19 -3 35 -10 35 -14 0 -4
-12 -10 -27 -13 -15 -3 -35 0 -45 6 -10 7 -22 25 -28 41 -5 16 -10 31 -10 32
0 2 5 4 10 4z m734 0 c14 0 28 -5 31 -11 4 -6 5 -13 2 -15 -2 -3 -16 -2 -31 2
-14 3 -26 10 -26 15 0 5 11 9 24 9z m1313 -32 c14 -3 18 -14 20 -53 1 -28 -1
-71 -4 -97 -3 -27 -9 -48 -14 -48 -5 0 -8 26 -7 58 1 31 -1 76 -5 100 -6 38
-5 43 10 40z m-2708 -48 c5 0 14 -7 21 -15 8 -10 21 -13 34 -9 12 4 27 9 34
11 6 3 12 -2 12 -10 0 -10 -14 -18 -40 -22 -27 -5 -46 -3 -55 5 -8 7 -15 19
-15 26 0 8 4 14 9 14z m782 0 c5 0 9 -5 9 -10 0 -6 -7 -22 -16 -35 -9 -14 -20
-25 -25 -25 -5 0 -9 5 -9 10 0 6 7 22 16 35 9 14 20 25 25 25z m262 -20 c4 0
7 -6 7 -14 0 -7 -12 -21 -26 -31 -14 -9 -32 -33 -41 -53 -8 -20 -22 -45 -31
-54 -8 -10 -19 -18 -24 -18 -4 0 -8 4 -8 9 0 5 6 16 14 24 8 8 21 31 30 51 8
20 28 47 43 61 15 13 31 25 36 25z m-2589 -154 c6 -1 12 -8 14 -14 2 -7 -4
-12 -13 -12 -10 0 -13 -5 -9 -12 4 -6 -1 -17 -10 -24 -14 -10 -15 -16 -7 -33
6 -11 10 -24 9 -28 -1 -4 1 -18 6 -30 4 -12 2 -31 -3 -42 -9 -16 -6 -23 15
-40 14 -11 23 -25 19 -31 -3 -5 -11 -10 -16 -10 -6 0 -21 12 -34 28 -13 15
-25 31 -25 35 0 5 7 15 15 23 10 10 12 21 6 32 -4 9 -11 34 -15 54 -4 21 -14
42 -24 47 -9 5 -14 12 -10 16 3 4 16 2 27 -5 19 -9 21 -8 21 14 0 13 6 27 13
29 6 3 16 4 21 3z m-124 -296 c6 0 10 -4 10 -10 0 -5 -4 -10 -10 -10 -5 0 -10
5 -10 10 0 6 5 10 10 10z m4283 -90 c4 0 7 -3 7 -7 0 -3 -7 -15 -16 -24 -15
-17 -15 -20 0 -43 9 -14 16 -28 16 -31 0 -3 -5 -5 -11 -5 -7 0 -18 8 -25 18
-7 9 -14 29 -14 44 0 15 8 31 18 37 9 6 20 11 25 11z m-1896 -170 c4 0 18 -11
32 -24 15 -13 55 -39 91 -58 36 -19 85 -38 110 -41 24 -3 46 -11 48 -16 2 -6
10 -11 19 -11 8 0 21 -6 29 -14 8 -8 14 -19 14 -25 0 -6 -5 -11 -10 -11 -6 0
-13 7 -16 15 -4 8 -14 15 -23 15 -9 0 -25 7 -35 15 -11 8 -34 15 -50 16 -17 0
-50 10 -72 22 -23 12 -56 30 -75 41 -18 10 -41 28 -51 40 -9 11 -17 24 -18 29
0 4 3 7 7 7z m-487 -20 c5 0 11 -4 14 -9 3 -4 31 -11 61 -14 31 -3 63 -11 70
-17 8 -7 18 -9 22 -7 5 3 53 8 107 11 68 4 105 11 116 21 9 8 20 15 24 15 5 0
6 -7 2 -15 -3 -9 0 -15 9 -15 8 0 15 -4 15 -10 0 -5 -19 -10 -42 -11 -24 0
-74 -2 -113 -5 -38 -2 -83 -6 -99 -9 -15 -3 -49 2 -75 11 -33 12 -64 14 -111
9 -36 -3 -74 -12 -85 -19 -11 -7 -35 -16 -52 -19 -20 -4 -33 -2 -33 4 0 5 8
12 18 15 9 4 31 12 49 20 17 8 43 14 57 14 15 0 29 7 32 15 4 8 10 15 14 15z
m42 -91 c14 0 53 -7 86 -18 34 -10 73 -16 89 -14 15 3 61 11 101 19 56 11 88
12 140 4 37 -6 90 -18 117 -27 28 -9 93 -38 145 -64 70 -36 98 -45 107 -37 8
6 16 8 20 5 3 -4 0 -13 -7 -22 -7 -8 -18 -15 -25 -15 -7 0 -48 18 -91 39 -44
22 -101 49 -129 61 -27 12 -84 28 -125 35 -63 12 -86 12 -145 0 -38 -7 -86
-16 -106 -19 -21 -4 -53 0 -78 9 -24 8 -58 16 -76 18 -18 2 -61 0 -95 -4 -34
-5 -71 -16 -83 -24 -12 -8 -32 -15 -44 -15 -13 0 -23 5 -23 10 0 6 8 10 18 10
10 0 27 7 39 15 12 9 48 19 80 24 32 5 70 9 85 10z m-1235 -1079 c5 0 14 -19
21 -42 7 -24 17 -86 22 -138 5 -52 10 -138 10 -191 0 -53 -3 -111 -6 -128 -4
-17 -9 -31 -13 -31 -3 0 -7 82 -7 183 -1 101 -7 204 -14 232 -6 28 -14 65 -17
83 -3 17 -1 32 4 32z m3022 -260 c7 0 12 -36 13 -107 1 -60 2 -126 3 -148 1
-22 5 -85 10 -140 4 -55 15 -147 25 -205 10 -58 28 -148 40 -200 12 -52 22
-101 23 -109 1 -8 -3 -16 -9 -18 -6 -2 -17 31 -27 79 -9 46 -26 127 -37 181
-11 53 -24 143 -30 200 -6 56 -13 184 -17 285 -4 131 -2 182 6 182z m176 -932
c6 1 31 -4 57 -11 26 -7 50 -16 53 -19 4 -4 9 -30 11 -60 3 -29 5 -71 4 -93 0
-22 -8 -61 -17 -88 -9 -26 -42 -80 -73 -121 -30 -40 -86 -101 -123 -134 -38
-34 -127 -100 -199 -147 -71 -48 -181 -111 -243 -140 -62 -30 -120 -55 -129
-55 -9 0 -16 -4 -16 -10 0 -5 -4 -10 -10 -10 -5 0 -10 7 -10 15 0 8 19 23 43
32 23 10 81 36 129 60 48 23 147 81 220 129 73 48 157 110 187 138 30 28 62
58 70 66 9 8 37 42 62 75 26 33 56 81 68 107 11 26 21 64 21 86 0 21 -7 47
-15 58 -8 10 -15 25 -15 33 0 7 6 11 14 8 12 -5 13 -1 7 16 -5 13 -21 25 -42
30 -19 5 -47 9 -63 8 -16 0 -30 -2 -32 -4 -2 -2 8 -37 22 -78 19 -55 24 -85
20 -119 -4 -25 -15 -61 -25 -80 -10 -19 -25 -48 -34 -65 -9 -16 -32 -48 -51
-70 -27 -31 -37 -37 -46 -28 -10 9 -4 19 23 43 20 17 39 41 43 53 3 12 17 36
30 53 13 17 28 52 35 78 10 41 9 54 -16 127 -14 44 -24 87 -21 94 2 7 15 15
28 18 13 2 28 5 33 5z m-3568 -400 c7 1 24 -3 38 -10 14 -6 25 -17 25 -25 0
-7 -2 -13 -5 -13 -3 0 -16 6 -28 14 -13 8 -37 12 -60 9 -25 -4 -41 -12 -49
-27 -6 -11 -21 -31 -34 -43 -19 -17 -22 -26 -14 -50 4 -15 18 -48 30 -73 12
-25 47 -75 76 -111 30 -37 76 -87 104 -113 27 -25 55 -46 61 -46 7 0 35 -18
63 -39 28 -22 77 -51 109 -65 31 -14 57 -30 57 -35 0 -6 -6 -11 -13 -11 -7 0
-17 4 -22 9 -6 5 -27 14 -48 21 -20 6 -60 30 -88 52 -28 22 -65 46 -82 53 -18
7 -57 40 -87 72 -31 32 -72 78 -92 103 -19 25 -46 65 -58 90 -12 25 -26 61
-30 80 -7 25 -5 44 7 70 9 19 18 39 21 43 2 5 -5 4 -17 -2 -11 -6 -25 -20 -31
-31 -5 -10 -10 -28 -10 -39 0 -12 -4 -21 -10 -21 -5 0 -10 12 -10 28 0 15 6
38 13 51 6 14 25 29 41 34 20 7 30 6 36 -3 5 -9 9 -8 13 4 3 8 22 16 44 19 21
2 43 4 50 5z m32 -48 c4 0 15 -24 24 -54 8 -30 34 -87 58 -127 23 -41 63 -96
88 -123 25 -27 83 -80 128 -117 45 -38 85 -69 89 -69 5 0 21 -12 36 -27 15
-15 28 -30 28 -35 0 -4 -5 -8 -10 -8 -6 0 -23 11 -38 25 -15 14 -31 25 -35 25
-5 0 -31 19 -59 43 -28 23 -87 78 -132 122 -45 44 -88 94 -96 110 -8 17 -23
43 -33 58 -11 16 -28 56 -38 90 -10 34 -19 68 -19 75 0 6 4 12 9 12z m-436
-190 c4 0 7 -7 7 -15 0 -8 -18 -24 -40 -35 -25 -13 -59 -20 -94 -20 -54 0 -57
-1 -82 -40 -15 -22 -34 -40 -44 -40 -9 0 -26 -10 -38 -22 -11 -13 -25 -35 -31
-50 -6 -16 -16 -28 -22 -28 -7 0 -9 11 -6 30 4 16 19 43 33 60 15 16 35 30 45
30 9 0 25 12 35 28 9 15 25 32 33 39 9 7 41 13 71 13 43 0 64 6 90 25 19 13
38 24 43 25z m-457 -141 c6 1 17 -5 23 -13 7 -8 11 -31 9 -52 -2 -21 -10 -41
-20 -48 -9 -5 -20 -7 -24 -3 -4 4 0 15 9 25 10 10 17 28 17 39 0 11 -3 22 -6
25 -3 3 -22 0 -42 -7 -20 -7 -62 -18 -92 -25 -30 -7 -75 -19 -100 -27 -25 -9
-79 -31 -120 -50 -41 -19 -89 -42 -107 -51 -18 -9 -35 -13 -39 -9 -4 3 4 15
17 26 13 11 29 20 35 21 5 0 32 11 60 24 27 13 74 33 104 44 30 12 87 29 125
38 39 9 86 22 105 29 19 7 40 13 46 14z m1284 -269 c6 0 30 -10 53 -22 23 -12
62 -25 87 -30 25 -5 77 -12 115 -16 53 -6 95 -4 174 10 56 11 106 17 109 14 3
-3 3 -8 0 -11 -3 -3 -52 -14 -109 -24 -83 -15 -119 -17 -179 -10 -41 5 -95 12
-120 17 -25 5 -66 19 -92 32 -27 13 -48 28 -48 32 0 4 5 8 10 8z m-1837 -50
c6 0 49 -12 95 -27 45 -15 82 -31 82 -35 0 -5 -8 -8 -17 -8 -10 0 -53 12 -95
27 -43 15 -78 31 -78 35 0 5 6 8 13 8z m663 -30 c9 0 14 -4 12 -8 -1 -5 -27
-30 -56 -55 -29 -26 -63 -47 -75 -47 -12 0 -31 -7 -41 -15 -11 -8 -40 -15 -65
-15 -25 0 -63 -5 -83 -10 -20 -6 -59 -26 -87 -45 -28 -19 -53 -35 -56 -35 -3
0 -5 6 -5 13 0 7 12 22 28 33 15 11 45 28 66 38 22 10 69 21 105 24 36 3 82
13 101 23 19 11 39 19 45 19 5 0 29 18 53 40 24 22 50 40 58 40z m4232 -371
c8 1 12 -4 10 -10 -2 -7 -40 -24 -83 -39 -44 -15 -93 -32 -110 -39 -16 -6 -43
-18 -60 -26 -16 -7 -51 -23 -76 -34 -26 -11 -60 -23 -75 -27 -16 -4 -70 -29
-121 -55 -50 -26 -110 -60 -133 -76 -23 -15 -53 -35 -66 -43 -12 -8 -26 -11
-30 -7 -4 4 8 21 27 37 19 16 93 58 164 94 72 36 193 91 270 123 77 32 169 67
205 79 36 12 71 22 78 23z"/>
<path d="M6096 9820 c-9 0 -16 -4 -16 -9 0 -4 16 -25 35 -45 25 -26 39 -35 50
-29 12 7 8 15 -20 46 -19 20 -41 37 -49 37z"/>
<path d="M5689 9710 c-4 0 -11 -6 -17 -12 -6 -7 -19 -44 -29 -83 -15 -57 -27
-79 -70 -126 -29 -31 -53 -64 -53 -74 0 -12 7 -8 26 14 14 17 30 31 34 31 5 0
29 21 54 48 25 26 46 55 46 64 0 9 11 30 25 46 25 30 25 31 8 61 -10 17 -21
31 -24 31z"/>
<path d="M6139 9414 c-2 3 -12 -1 -22 -8 -9 -7 -17 -18 -17 -24 0 -6 -6 -17
-13 -24 -7 -7 -18 -26 -25 -42 -11 -25 -11 -32 2 -45 15 -14 16 -13 16 13 0
15 8 42 17 59 10 18 24 40 32 50 8 9 12 19 10 21z"/>
<path d="M6075 9390 c-2 0 -7 -5 -10 -11 -4 -6 -5 -12 -2 -15 2 -3 7 2 10 11
4 8 5 15 2 15z"/>
<path d="M7250 8843 c-4 5 -10 2 -13 -6 -3 -8 -1 -32 4 -53 4 -22 9 -62 9 -89
0 -28 -5 -56 -12 -63 -9 -9 -9 -20 1 -49 10 -26 10 -38 3 -41 -8 -2 -7 -13 2
-35 8 -18 19 -53 25 -80 6 -26 11 -77 11 -113 0 -57 2 -65 18 -62 14 3 18 16
20 77 2 40 -2 98 -8 128 -7 30 -20 63 -31 74 -10 10 -19 23 -19 28 0 5 6 14
14 20 8 7 19 33 26 60 10 42 8 54 -16 122 -15 40 -30 78 -34 82z"/>
<path d="M5751 9550 c-6 0 -13 -4 -16 -10 -3 -5 -3 -15 1 -21 4 -8 9 -7 15 2
5 8 9 17 9 22 0 4 -4 7 -9 7z"/>
<path d="M6703 9464 c-13 4 -23 4 -23 -1 0 -4 -6 -15 -13 -24 -7 -9 -22 -19
-34 -23 -18 -6 -25 -2 -34 18 -7 14 -16 23 -20 20 -5 -2 -6 -17 -4 -32 2 -15
7 -48 10 -73 5 -37 15 -57 48 -92 23 -25 57 -63 75 -84 30 -34 33 -43 27 -83
-3 -25 -11 -50 -19 -55 -9 -7 -11 -17 -4 -34 4 -13 6 -26 4 -28 -3 -3 -9 -2
-15 2 -6 3 -11 14 -11 24 0 10 -6 24 -14 30 -8 7 -18 26 -21 42 -4 16 -9 29
-11 29 -3 0 -20 -7 -39 -14 -19 -8 -35 -19 -36 -23 -1 -4 -2 -25 -3 -46 l-3
-39 16 26 c9 14 21 26 27 26 6 0 16 -10 22 -22 7 -13 19 -45 27 -73 8 -27 15
-60 15 -72 0 -12 4 -24 9 -28 5 -3 15 11 21 31 11 32 10 38 -4 46 -9 5 -16 14
-16 19 0 6 8 8 19 4 12 -3 21 0 25 10 3 8 14 15 24 15 10 0 23 5 29 11 8 8 8
23 -2 55 -10 34 -11 62 -3 122 5 42 15 83 22 90 9 10 19 10 40 2 22 -8 27 -15
24 -37 -2 -14 -9 -28 -16 -31 -8 -2 -11 5 -10 20 2 15 -2 23 -12 23 -8 0 -17
-13 -21 -31 -5 -25 -3 -31 10 -30 11 1 17 -9 19 -36 2 -20 9 -41 16 -47 8 -6
21 -9 30 -5 12 4 13 10 6 24 -6 10 -10 23 -10 29 0 6 5 11 11 11 5 0 16 -15
24 -33 8 -19 21 -39 29 -47 10 -8 16 -29 16 -55 0 -24 6 -58 14 -76 12 -28 16
-31 21 -16 4 9 5 27 2 39 -3 12 -1 41 6 65 11 41 9 48 -16 93 -15 26 -27 59
-27 73 0 14 7 27 15 31 8 3 15 11 15 17 0 7 -42 52 -92 101 -51 49 -109 100
-128 112 -19 13 -45 26 -57 30z m14 -254 c3 0 15 -7 25 -17 10 -9 18 -20 18
-25 0 -4 -5 -8 -11 -8 -6 0 -17 6 -25 14 -8 8 -14 19 -14 25 0 6 3 11 7 11z"/>
<path d="M7002 9200 c-4 0 -13 -9 -20 -20 -10 -17 -10 -25 1 -47 l14 -27 13
23 c6 13 9 34 6 47 -4 13 -10 24 -14 24z"/>
<path d="M6687 9156 c-20 19 -38 30 -41 25 -4 -5 0 -25 8 -43 8 -18 19 -46 25
-61 6 -15 15 -26 20 -22 5 3 13 19 16 36 6 27 2 36 -28 65z"/>
<path d="M6930 8930 c-6 9 -13 4 -25 -20 -12 -24 -15 -45 -10 -76 5 -35 10
-44 26 -44 10 0 19 3 19 7 0 3 -7 14 -15 23 -13 15 -13 22 -1 57 8 22 10 46 6
53z"/>
<path d="M6321 8894 c-3 2 -21 -8 -39 -22 -18 -15 -32 -30 -32 -34 0 -4 13 -6
29 -5 21 1 31 9 39 29 6 16 7 30 3 32z"/>
<path d="M6761 8740 c-6 0 -15 -9 -21 -19 -5 -11 -10 -33 -10 -50 0 -17 4 -31
9 -31 5 0 12 15 16 33 4 17 9 40 11 50 3 9 1 17 -5 17z"/>
<path d="M3859 9270 c-12 7 -21 4 -33 -9 -9 -10 -24 -40 -33 -67 -9 -27 -24
-62 -34 -79 -10 -16 -27 -57 -38 -90 -11 -33 -24 -76 -29 -97 -9 -31 -7 -37 8
-41 15 -4 20 3 25 37 4 22 9 49 11 59 3 9 10 17 15 17 5 0 9 -12 9 -27 1 -25
2 -26 11 -9 7 11 9 45 4 92 -4 48 -3 74 3 74 6 0 14 -29 17 -65 4 -35 4 -80 1
-100 -6 -28 -4 -35 9 -35 8 0 15 -4 15 -10 0 -5 -4 -10 -9 -10 -5 0 -12 -12
-15 -27 -3 -16 2 -57 12 -93 11 -42 23 -66 33 -68 11 -2 18 6 21 23 3 14 1 25
-3 25 -5 0 -11 11 -15 25 -3 14 -12 25 -19 25 -7 0 -16 8 -19 17 -4 10 -1 20
9 25 9 5 15 23 15 43 0 18 5 46 11 62 7 20 7 29 -1 31 -7 3 -9 23 -4 64 6 55
5 60 -15 65 -11 3 -21 9 -21 13 0 4 8 11 17 14 11 5 23 0 31 -11 10 -12 12
-36 9 -75 -3 -32 -1 -58 4 -58 5 0 9 -7 9 -16 0 -14 3 -14 15 -4 8 7 15 20 15
29 0 9 4 21 9 27 5 5 11 41 13 80 3 40 1 80 -5 90 -6 11 -18 25 -26 32 -9 7
-23 17 -32 22z"/>
<path d="M3692 8872 c-14 4 -23 -4 -35 -26 -8 -17 -17 -55 -20 -84 -3 -45 0
-58 18 -80 12 -15 27 -37 34 -50 7 -12 9 -27 6 -32 -3 -5 0 -12 6 -16 6 -3 15
0 20 7 5 8 7 25 4 39 -3 14 -7 49 -9 77 -3 29 0 55 5 58 5 4 9 11 9 16 0 6 -7
4 -15 -5 -8 -8 -15 -17 -15 -21 0 -4 -7 -13 -15 -22 -9 -8 -17 -14 -19 -12 -2
2 -6 14 -10 25 -4 15 -2 24 9 28 8 3 15 15 15 26 0 11 4 20 9 20 5 0 12 -6 14
-12 3 -7 6 3 6 23 1 28 -4 38 -17 41z"/>
<path d="M7467 8880 c-5 0 -7 -8 -5 -17 2 -10 11 -19 21 -21 16 -3 17 -1 5 17
-7 12 -17 21 -21 21z"/>
<path d="M7780 8280 c-5 0 -10 -4 -10 -9 0 -6 5 -13 10 -16 6 -3 10 1 10 9 0
9 -4 16 -10 16z"/>
<path d="M2786 7600 c-9 0 -16 -4 -16 -10 0 -5 -6 -10 -14 -10 -9 0 -12 -7 -9
-20 3 -11 8 -22 12 -24 4 -3 12 -2 18 2 6 4 15 20 18 35 6 21 4 27 -9 27z"/>
<path d="M3713 7590 c-7 16 -12 19 -14 10 -1 -8 -1 -21 0 -27 1 -7 -5 -13 -14
-13 -9 0 -22 -14 -29 -32 -8 -18 -12 -38 -9 -45 3 -7 10 -10 16 -6 6 4 27 9
47 13 27 4 36 10 38 30 2 13 -2 29 -10 34 -7 6 -19 22 -25 36z m-13 -60 c6 0
10 -4 10 -10 0 -5 -4 -10 -10 -10 -5 0 -10 5 -10 10 0 6 5 10 10 10z"/>
<path d="M3539 7530 c-10 0 -22 -6 -26 -14 -4 -8 -17 -15 -27 -17 -10 -2 -22
-11 -27 -19 -4 -8 -14 -31 -22 -50 -9 -19 -25 -58 -37 -85 -11 -28 -31 -57
-42 -66 -12 -9 -19 -23 -16 -31 4 -10 20 -14 49 -12 24 0 47 2 51 3 3 0 14 27
24 59 13 43 30 70 69 110 38 38 59 52 80 52 28 0 28 0 9 19 -19 18 -19 18 -28
0 -5 -11 -13 -19 -18 -19 -4 0 -8 9 -8 19 0 11 -3 26 -6 35 -3 9 -14 16 -25
16z"/>
<path d="M3265 7177 c-5 2 -11 -16 -13 -39 -2 -36 -1 -40 13 -28 9 7 15 24 13
38 -2 14 -7 27 -13 29z"/>
<path d="M3426 7065 c-8 11 -14 13 -22 5 -6 -6 -26 -19 -45 -28 -30 -15 -35
-24 -43 -69 -5 -28 -6 -59 -2 -68 5 -14 15 -16 59 -10 28 4 58 12 65 19 8 8
10 30 6 74 -4 34 -12 69 -18 77z"/>
<path d="M3476 6967 c-3 4 -6 -2 -5 -13 0 -11 3 -14 6 -6 3 7 2 16 -1 19z"/>
<path d="M7456 6950 c-8 0 -17 -4 -21 -9 -3 -5 -1 -12 5 -16 5 -3 15 -3 20 0
6 3 10 10 10 16 0 5 -6 9 -14 9z"/>
<path d="M3221 6145 c-5 3 -11 2 -14 -2 -2 -5 -14 -56 -27 -116 -17 -74 -21
-110 -13 -118 7 -7 14 9 22 53 7 35 19 76 27 91 7 16 14 41 14 57 0 16 -4 31
-9 35z"/>
<path d="M3156 5893 c-10 4 -18 -3 -24 -22 -7 -20 -6 -37 4 -61 12 -27 12 -48
3 -114 -9 -73 -9 -81 7 -93 16 -12 17 -14 1 -25 -15 -12 -15 -19 0 -83 8 -38
18 -77 20 -85 4 -12 7 -12 19 4 8 11 14 34 14 50 0 17 -9 59 -20 94 -18 56
-18 71 -8 132 9 54 9 80 0 118 -7 26 -10 55 -7 64 4 9 0 18 -9 21z"/>
<path d="M5363 6819 c-17 20 -20 21 -40 6 l-22 -16 20 -20 c17 -17 22 -18 40
-6 19 14 19 15 2 36z"/>
<path d="M9 3270 c-5 0 -9 -11 -9 -25 0 -18 5 -25 19 -25 10 0 113 -48 227
-106 115 -59 308 -157 429 -219 121 -62 285 -146 365 -187 80 -41 244 -126
365 -188 121 -62 252 -130 290 -150 39 -20 140 -73 225 -117 85 -44 236 -122
335 -173 99 -51 188 -99 197 -107 10 -9 24 -13 33 -10 8 4 15 10 15 15 0 4
-57 38 -127 73 -71 36 -202 104 -293 151 -91 47 -235 121 -320 165 -85 45
-191 100 -235 123 -44 23 -179 93 -300 155 -121 62 -236 122 -255 133 -19 12
-102 56 -185 98 -82 43 -172 88 -200 101 -27 13 -63 31 -80 40 -16 9 -84 44
-150 78 -66 34 -169 87 -229 118 -59 31 -112 57 -117 57z"/>
</g>
</svg>
